solid OpenSCAD_Model
  facet normal 1 -0 0
    outer loop
      vertex 90 -10 4.5
      vertex 90 10 -4.5
      vertex 90 10 4.5
    endloop
  endfacet
  facet normal 1 0 0
    outer loop
      vertex 90 10 -4.5
      vertex 90 -10 4.5
      vertex 90 -10 -4.5
    endloop
  endfacet
  facet normal 0 0 1
    outer loop
      vertex -52.4079 0 4.5
      vertex -71.573 3.23664 4.5
      vertex -55.6159 -10 4.5
    endloop
  endfacet
  facet normal -0 0 1
    outer loop
      vertex -73.073 2.14683 4.5
      vertex -55.6159 -10 4.5
      vertex -71.573 3.23664 4.5
    endloop
  endfacet
  facet normal 0 0 1
    outer loop
      vertex -81 -5 4.5
      vertex -73.073 2.14683 4.5
      vertex -74.927 2.14683 4.5
    endloop
  endfacet
  facet normal 0 0 1
    outer loop
      vertex -83.073 -2.14683 4.5
      vertex -76.427 3.23664 4.5
      vertex -77 5 4.5
    endloop
  endfacet
  facet normal 0 0 1
    outer loop
      vertex -81.573 -3.23664 4.5
      vertex -74.927 2.14683 4.5
      vertex -76.427 3.23664 4.5
    endloop
  endfacet
  facet normal 0 0 1
    outer loop
      vertex -81.573 -6.76336 4.5
      vertex -73.073 2.14683 4.5
      vertex -81 -5 4.5
    endloop
  endfacet
  facet normal 0 0 1
    outer loop
      vertex -73.073 2.14683 4.5
      vertex -81.573 -6.76336 4.5
      vertex -55.6159 -10 4.5
    endloop
  endfacet
  facet normal -0 0 1
    outer loop
      vertex -83.073 -7.85317 4.5
      vertex -55.6159 -10 4.5
      vertex -81.573 -6.76336 4.5
    endloop
  endfacet
  facet normal 0 0 1
    outer loop
      vertex -90 -10 4.5
      vertex -83.073 -7.85317 4.5
      vertex -84.927 -7.85317 4.5
    endloop
  endfacet
  facet normal 0 0 1
    outer loop
      vertex -83.073 -7.85317 4.5
      vertex -90 -10 4.5
      vertex -55.6159 -10 4.5
    endloop
  endfacet
  facet normal 0 0 1
    outer loop
      vertex -86.427 -6.76336 4.5
      vertex -90 -10 4.5
      vertex -84.927 -7.85317 4.5
    endloop
  endfacet
  facet normal 0 0 1
    outer loop
      vertex -87 -5 4.5
      vertex -90 -10 4.5
      vertex -86.427 -6.76336 4.5
    endloop
  endfacet
  facet normal 0 0 1
    outer loop
      vertex -90 -10 4.5
      vertex -87 -5 4.5
      vertex -90 10 4.5
    endloop
  endfacet
  facet normal 0 0 1
    outer loop
      vertex 55.6159 -10 4.5
      vertex 51.2627 -10.8962 4.5
      vertex 55.4286 -11.7817 4.5
    endloop
  endfacet
  facet normal 0 0 1
    outer loop
      vertex 55.4286 -11.7817 4.5
      vertex 51.2627 -10.8962 4.5
      vertex 51.7678 -23.0485 4.5
    endloop
  endfacet
  facet normal -0 0 1
    outer loop
      vertex 47.877 -21.3162 4.5
      vertex 51.7678 -23.0485 4.5
      vertex 51.2627 -10.8962 4.5
    endloop
  endfacet
  facet normal 0 0 1
    outer loop
      vertex 47.877 -21.3162 4.5
      vertex 45.8445 -33.308 4.5
      vertex 51.7678 -23.0485 4.5
    endloop
  endfacet
  facet normal -0 0 1
    outer loop
      vertex 42.3989 -30.8046 4.5
      vertex 45.8445 -33.308 4.5
      vertex 47.877 -21.3162 4.5
    endloop
  endfacet
  facet normal 0 0 1
    outer loop
      vertex 42.3989 -30.8046 4.5
      vertex 37.9176 -42.1117 4.5
      vertex 45.8445 -33.308 4.5
    endloop
  endfacet
  facet normal -0 0 1
    outer loop
      vertex 35.0678 -38.9467 4.5
      vertex 37.9176 -42.1117 4.5
      vertex 42.3989 -30.8046 4.5
    endloop
  endfacet
  facet normal 0 0 1
    outer loop
      vertex 35.0678 -38.9467 4.5
      vertex 28.3335 -49.075 4.5
      vertex 37.9176 -42.1117 4.5
    endloop
  endfacet
  facet normal -0 0 1
    outer loop
      vertex 26.204 -45.3866 4.5
      vertex 28.3335 -49.075 4.5
      vertex 35.0678 -38.9467 4.5
    endloop
  endfacet
  facet normal 0 0 1
    outer loop
      vertex 26.204 -45.3866 4.5
      vertex 17.511 -53.8935 4.5
      vertex 28.3335 -49.075 4.5
    endloop
  endfacet
  facet normal -0 0 1
    outer loop
      vertex 16.1949 -49.8429 4.5
      vertex 17.511 -53.8935 4.5
      vertex 26.204 -45.3866 4.5
    endloop
  endfacet
  facet normal 0 0 1
    outer loop
      vertex 16.1949 -49.8429 4.5
      vertex 5.92331 -56.3565 4.5
      vertex 17.511 -53.8935 4.5
    endloop
  endfacet
  facet normal -0 0 1
    outer loop
      vertex 5.47812 -52.1208 4.5
      vertex 5.92331 -56.3565 4.5
      vertex 16.1949 -49.8429 4.5
    endloop
  endfacet
  facet normal -0 0 1
    outer loop
      vertex -5.47812 -52.1208 4.5
      vertex 5.92331 -56.3565 4.5
      vertex 5.47812 -52.1208 4.5
    endloop
  endfacet
  facet normal 0 0 1
    outer loop
      vertex -5.47812 -52.1208 4.5
      vertex -5.92331 -56.3565 4.5
      vertex 5.92331 -56.3565 4.5
    endloop
  endfacet
  facet normal 0 0 1
    outer loop
      vertex -16.1949 -49.8429 4.5
      vertex -5.92331 -56.3565 4.5
      vertex -5.47812 -52.1208 4.5
    endloop
  endfacet
  facet normal 0 0 1
    outer loop
      vertex -16.1949 -49.8429 4.5
      vertex -17.511 -53.8935 4.5
      vertex -5.92331 -56.3565 4.5
    endloop
  endfacet
  facet normal 0 0 1
    outer loop
      vertex -26.204 -45.3866 4.5
      vertex -17.511 -53.8935 4.5
      vertex -16.1949 -49.8429 4.5
    endloop
  endfacet
  facet normal 0 0 1
    outer loop
      vertex -26.204 -45.3866 4.5
      vertex -28.3335 -49.075 4.5
      vertex -17.511 -53.8935 4.5
    endloop
  endfacet
  facet normal 0 0 1
    outer loop
      vertex -35.0678 -38.9467 4.5
      vertex -28.3335 -49.075 4.5
      vertex -26.204 -45.3866 4.5
    endloop
  endfacet
  facet normal 0 0 1
    outer loop
      vertex -35.0678 -38.9467 4.5
      vertex -37.9176 -42.1117 4.5
      vertex -28.3335 -49.075 4.5
    endloop
  endfacet
  facet normal 0 0 1
    outer loop
      vertex -42.3989 -30.8046 4.5
      vertex -37.9176 -42.1117 4.5
      vertex -35.0678 -38.9467 4.5
    endloop
  endfacet
  facet normal 0 0 1
    outer loop
      vertex -42.3989 -30.8046 4.5
      vertex -45.8445 -33.308 4.5
      vertex -37.9176 -42.1117 4.5
    endloop
  endfacet
  facet normal 0 0 1
    outer loop
      vertex -47.877 -21.3162 4.5
      vertex -45.8445 -33.308 4.5
      vertex -42.3989 -30.8046 4.5
    endloop
  endfacet
  facet normal 0 0 1
    outer loop
      vertex -51.7678 -23.0485 4.5
      vertex -47.877 -21.3162 4.5
      vertex -51.2627 -10.8962 4.5
    endloop
  endfacet
  facet normal 0 0 1
    outer loop
      vertex -47.877 -21.3162 4.5
      vertex -51.7678 -23.0485 4.5
      vertex -45.8445 -33.308 4.5
    endloop
  endfacet
  facet normal -0 0 1
    outer loop
      vertex -55.6159 -10 4.5
      vertex -51.2627 -10.8962 4.5
      vertex -52.4079 0 4.5
    endloop
  endfacet
  facet normal 0 0 1
    outer loop
      vertex -51.2627 10.8962 4.5
      vertex -55.6159 10 4.5
      vertex -52.4079 0 4.5
    endloop
  endfacet
  facet normal -0 0 1
    outer loop
      vertex -71 5 4.5
      vertex -52.4079 0 4.5
      vertex -55.6159 10 4.5
    endloop
  endfacet
  facet normal 0 0 1
    outer loop
      vertex -51.2627 -10.8962 4.5
      vertex -55.6159 -10 4.5
      vertex -55.4286 -11.7817 4.5
    endloop
  endfacet
  facet normal 0 0 1
    outer loop
      vertex -51.2627 -10.8962 4.5
      vertex -55.4286 -11.7817 4.5
      vertex -51.7678 -23.0485 4.5
    endloop
  endfacet
  facet normal -0 0 1
    outer loop
      vertex -71.573 3.23664 4.5
      vertex -52.4079 0 4.5
      vertex -71 5 4.5
    endloop
  endfacet
  facet normal 0 0 1
    outer loop
      vertex -55.6159 10 4.5
      vertex -71.573 6.76336 4.5
      vertex -71 5 4.5
    endloop
  endfacet
  facet normal 0 0 1
    outer loop
      vertex -55.6159 10 4.5
      vertex -73.073 7.85317 4.5
      vertex -71.573 6.76336 4.5
    endloop
  endfacet
  facet normal -0 0 1
    outer loop
      vertex -90 10 4.5
      vertex -73.073 7.85317 4.5
      vertex -55.6159 10 4.5
    endloop
  endfacet
  facet normal 0 0 1
    outer loop
      vertex -90 10 4.5
      vertex -77 5 4.5
      vertex -76.427 6.76336 4.5
    endloop
  endfacet
  facet normal 0 0 1
    outer loop
      vertex -74.927 2.14683 4.5
      vertex -81.573 -3.23664 4.5
      vertex -81 -5 4.5
    endloop
  endfacet
  facet normal 0 0 1
    outer loop
      vertex -76.427 3.23664 4.5
      vertex -83.073 -2.14683 4.5
      vertex -81.573 -3.23664 4.5
    endloop
  endfacet
  facet normal 0 -0 1
    outer loop
      vertex -84.927 -2.14683 4.5
      vertex -77 5 4.5
      vertex -90 10 4.5
    endloop
  endfacet
  facet normal 0 0 1
    outer loop
      vertex -77 5 4.5
      vertex -84.927 -2.14683 4.5
      vertex -83.073 -2.14683 4.5
    endloop
  endfacet
  facet normal 0 0 1
    outer loop
      vertex -86.427 -3.23664 4.5
      vertex -90 10 4.5
      vertex -87 -5 4.5
    endloop
  endfacet
  facet normal 0 0 1
    outer loop
      vertex -84.927 -2.14683 4.5
      vertex -90 10 4.5
      vertex -86.427 -3.23664 4.5
    endloop
  endfacet
  facet normal 0 0 1
    outer loop
      vertex -74.927 7.85317 4.5
      vertex -90 10 4.5
      vertex -76.427 6.76336 4.5
    endloop
  endfacet
  facet normal 0 0 1
    outer loop
      vertex -73.073 7.85317 4.5
      vertex -90 10 4.5
      vertex -74.927 7.85317 4.5
    endloop
  endfacet
  facet normal 0 0 1
    outer loop
      vertex 90 10 4.5
      vertex 87 5 4.5
      vertex 90 -10 4.5
    endloop
  endfacet
  facet normal 0 0 1
    outer loop
      vertex 90 10 4.5
      vertex 86.427 6.76336 4.5
      vertex 87 5 4.5
    endloop
  endfacet
  facet normal 0 0 1
    outer loop
      vertex 90 10 4.5
      vertex 84.927 7.85317 4.5
      vertex 86.427 6.76336 4.5
    endloop
  endfacet
  facet normal 0 0 1
    outer loop
      vertex 90 10 4.5
      vertex 83.073 7.85317 4.5
      vertex 84.927 7.85317 4.5
    endloop
  endfacet
  facet normal 0 0 1
    outer loop
      vertex 73.073 -2.14683 4.5
      vertex 81 5 4.5
      vertex 81.573 6.76336 4.5
    endloop
  endfacet
  facet normal 0 0 1
    outer loop
      vertex 81 5 4.5
      vertex 76.427 -3.23664 4.5
      vertex 77 -5 4.5
    endloop
  endfacet
  facet normal 0 0 1
    outer loop
      vertex 81 5 4.5
      vertex 74.927 -2.14683 4.5
      vertex 76.427 -3.23664 4.5
    endloop
  endfacet
  facet normal 0 0 1
    outer loop
      vertex 81 5 4.5
      vertex 73.073 -2.14683 4.5
      vertex 74.927 -2.14683 4.5
    endloop
  endfacet
  facet normal 0 0 1
    outer loop
      vertex 55.6159 10 4.5
      vertex 73.073 -2.14683 4.5
      vertex 81.573 6.76336 4.5
    endloop
  endfacet
  facet normal -0 0 1
    outer loop
      vertex 52.4079 0 4.5
      vertex 71.573 -3.23664 4.5
      vertex 55.6159 10 4.5
    endloop
  endfacet
  facet normal 0 0 1
    outer loop
      vertex 73.073 -2.14683 4.5
      vertex 55.6159 10 4.5
      vertex 71.573 -3.23664 4.5
    endloop
  endfacet
  facet normal 0 0 1
    outer loop
      vertex 83.073 7.85317 4.5
      vertex 55.6159 10 4.5
      vertex 81.573 6.76336 4.5
    endloop
  endfacet
  facet normal -0 0 1
    outer loop
      vertex 55.6159 10 4.5
      vertex 83.073 7.85317 4.5
      vertex 90 10 4.5
    endloop
  endfacet
  facet normal -0 0 1
    outer loop
      vertex 86.427 3.23664 4.5
      vertex 90 -10 4.5
      vertex 87 5 4.5
    endloop
  endfacet
  facet normal -0 0 1
    outer loop
      vertex 84.927 2.14683 4.5
      vertex 90 -10 4.5
      vertex 86.427 3.23664 4.5
    endloop
  endfacet
  facet normal 0 0 1
    outer loop
      vertex 77 -5 4.5
      vertex 84.927 2.14683 4.5
      vertex 83.073 2.14683 4.5
    endloop
  endfacet
  facet normal 0 0 1
    outer loop
      vertex 77 -5 4.5
      vertex 83.073 2.14683 4.5
      vertex 81.573 3.23664 4.5
    endloop
  endfacet
  facet normal 0 0 1
    outer loop
      vertex 77 -5 4.5
      vertex 81.573 3.23664 4.5
      vertex 81 5 4.5
    endloop
  endfacet
  facet normal 0 0 1
    outer loop
      vertex 84.927 2.14683 4.5
      vertex 77 -5 4.5
      vertex 90 -10 4.5
    endloop
  endfacet
  facet normal -0 0 1
    outer loop
      vertex 76.427 -6.76336 4.5
      vertex 90 -10 4.5
      vertex 77 -5 4.5
    endloop
  endfacet
  facet normal -0 0 1
    outer loop
      vertex 74.927 -7.85317 4.5
      vertex 90 -10 4.5
      vertex 76.427 -6.76336 4.5
    endloop
  endfacet
  facet normal -0 0 1
    outer loop
      vertex 73.073 -7.85317 4.5
      vertex 90 -10 4.5
      vertex 74.927 -7.85317 4.5
    endloop
  endfacet
  facet normal 0 0 1
    outer loop
      vertex 71.573 -3.23664 4.5
      vertex 52.4079 0 4.5
      vertex 71 -5 4.5
    endloop
  endfacet
  facet normal 0 0 1
    outer loop
      vertex 73.073 -7.85317 4.5
      vertex 55.6159 -10 4.5
      vertex 90 -10 4.5
    endloop
  endfacet
  facet normal 0 0 1
    outer loop
      vertex 71.573 -6.76336 4.5
      vertex 55.6159 -10 4.5
      vertex 73.073 -7.85317 4.5
    endloop
  endfacet
  facet normal 0 -0 1
    outer loop
      vertex 55.6159 -10 4.5
      vertex 71 -5 4.5
      vertex 52.4079 0 4.5
    endloop
  endfacet
  facet normal -0 0 1
    outer loop
      vertex 51.2627 10.8962 4.5
      vertex 55.6159 10 4.5
      vertex 55.4286 11.7817 4.5
    endloop
  endfacet
  facet normal 0 0 1
    outer loop
      vertex 71 -5 4.5
      vertex 55.6159 -10 4.5
      vertex 71.573 -6.76336 4.5
    endloop
  endfacet
  facet normal 0 0 1
    outer loop
      vertex 51.2627 -10.8962 4.5
      vertex 55.6159 -10 4.5
      vertex 52.4079 0 4.5
    endloop
  endfacet
  facet normal 0 0 1
    outer loop
      vertex 51.2627 10.8962 4.5
      vertex 55.4286 11.7817 4.5
      vertex 51.7678 23.0485 4.5
    endloop
  endfacet
  facet normal 0 0 1
    outer loop
      vertex 55.6159 10 4.5
      vertex 51.2627 10.8962 4.5
      vertex 52.4079 0 4.5
    endloop
  endfacet
  facet normal 0 0 1
    outer loop
      vertex 51.7678 23.0485 4.5
      vertex 47.877 21.3162 4.5
      vertex 51.2627 10.8962 4.5
    endloop
  endfacet
  facet normal 0 0 1
    outer loop
      vertex 45.8445 33.308 4.5
      vertex 47.877 21.3162 4.5
      vertex 51.7678 23.0485 4.5
    endloop
  endfacet
  facet normal 0 0 1
    outer loop
      vertex 45.8445 33.308 4.5
      vertex 42.3989 30.8046 4.5
      vertex 47.877 21.3162 4.5
    endloop
  endfacet
  facet normal 0 0 1
    outer loop
      vertex 37.9176 42.1117 4.5
      vertex 42.3989 30.8046 4.5
      vertex 45.8445 33.308 4.5
    endloop
  endfacet
  facet normal 0 0 1
    outer loop
      vertex 37.9176 42.1117 4.5
      vertex 35.0678 38.9467 4.5
      vertex 42.3989 30.8046 4.5
    endloop
  endfacet
  facet normal 0 0 1
    outer loop
      vertex 28.3335 49.075 4.5
      vertex 35.0678 38.9467 4.5
      vertex 37.9176 42.1117 4.5
    endloop
  endfacet
  facet normal 0 0 1
    outer loop
      vertex 28.3335 49.075 4.5
      vertex 26.204 45.3866 4.5
      vertex 35.0678 38.9467 4.5
    endloop
  endfacet
  facet normal 0 0 1
    outer loop
      vertex 17.511 53.8935 4.5
      vertex 26.204 45.3866 4.5
      vertex 28.3335 49.075 4.5
    endloop
  endfacet
  facet normal 0 0 1
    outer loop
      vertex 17.511 53.8935 4.5
      vertex 16.1949 49.8429 4.5
      vertex 26.204 45.3866 4.5
    endloop
  endfacet
  facet normal 0 0 1
    outer loop
      vertex 5.92331 56.3565 4.5
      vertex 16.1949 49.8429 4.5
      vertex 17.511 53.8935 4.5
    endloop
  endfacet
  facet normal 0 0 1
    outer loop
      vertex 5.92331 56.3565 4.5
      vertex 5.47812 52.1208 4.5
      vertex 16.1949 49.8429 4.5
    endloop
  endfacet
  facet normal 0 0 1
    outer loop
      vertex 5.92331 56.3565 4.5
      vertex -5.47812 52.1208 4.5
      vertex 5.47812 52.1208 4.5
    endloop
  endfacet
  facet normal -0 0 1
    outer loop
      vertex -5.92331 56.3565 4.5
      vertex -5.47812 52.1208 4.5
      vertex 5.92331 56.3565 4.5
    endloop
  endfacet
  facet normal 0 0 1
    outer loop
      vertex -5.92331 56.3565 4.5
      vertex -16.1949 49.8429 4.5
      vertex -5.47812 52.1208 4.5
    endloop
  endfacet
  facet normal -0 0 1
    outer loop
      vertex -17.511 53.8935 4.5
      vertex -16.1949 49.8429 4.5
      vertex -5.92331 56.3565 4.5
    endloop
  endfacet
  facet normal 0 0 1
    outer loop
      vertex -17.511 53.8935 4.5
      vertex -26.204 45.3866 4.5
      vertex -16.1949 49.8429 4.5
    endloop
  endfacet
  facet normal -0 0 1
    outer loop
      vertex -28.3335 49.075 4.5
      vertex -26.204 45.3866 4.5
      vertex -17.511 53.8935 4.5
    endloop
  endfacet
  facet normal 0 0 1
    outer loop
      vertex -28.3335 49.075 4.5
      vertex -35.0678 38.9467 4.5
      vertex -26.204 45.3866 4.5
    endloop
  endfacet
  facet normal -0 0 1
    outer loop
      vertex -37.9176 42.1117 4.5
      vertex -35.0678 38.9467 4.5
      vertex -28.3335 49.075 4.5
    endloop
  endfacet
  facet normal 0 0 1
    outer loop
      vertex -37.9176 42.1117 4.5
      vertex -42.3989 30.8046 4.5
      vertex -35.0678 38.9467 4.5
    endloop
  endfacet
  facet normal -0 0 1
    outer loop
      vertex -45.8445 33.308 4.5
      vertex -42.3989 30.8046 4.5
      vertex -37.9176 42.1117 4.5
    endloop
  endfacet
  facet normal 0 0 1
    outer loop
      vertex -45.8445 33.308 4.5
      vertex -47.877 21.3162 4.5
      vertex -42.3989 30.8046 4.5
    endloop
  endfacet
  facet normal -0 0 1
    outer loop
      vertex -51.7678 23.0485 4.5
      vertex -47.877 21.3162 4.5
      vertex -45.8445 33.308 4.5
    endloop
  endfacet
  facet normal 0 0 1
    outer loop
      vertex -47.877 21.3162 4.5
      vertex -51.7678 23.0485 4.5
      vertex -51.2627 10.8962 4.5
    endloop
  endfacet
  facet normal -0 0 1
    outer loop
      vertex -55.4286 11.7817 4.5
      vertex -51.2627 10.8962 4.5
      vertex -51.7678 23.0485 4.5
    endloop
  endfacet
  facet normal 0 0 1
    outer loop
      vertex -55.6159 10 4.5
      vertex -51.2627 10.8962 4.5
      vertex -55.4286 11.7817 4.5
    endloop
  endfacet
  facet normal 0 0 -1
    outer loop
      vertex -71.573 6.76336 -4.5
      vertex -55.6159 10 -4.5
      vertex -71 5 -4.5
    endloop
  endfacet
  facet normal 0 0 -1
    outer loop
      vertex -73.073 7.85317 -4.5
      vertex -55.6159 10 -4.5
      vertex -71.573 6.76336 -4.5
    endloop
  endfacet
  facet normal 0 0 -1
    outer loop
      vertex -90 10 -4.5
      vertex -73.073 7.85317 -4.5
      vertex -74.927 7.85317 -4.5
    endloop
  endfacet
  facet normal 0 0 -1
    outer loop
      vertex -83.073 -2.14683 -4.5
      vertex -76.427 3.23664 -4.5
      vertex -81.573 -3.23664 -4.5
    endloop
  endfacet
  facet normal -0 0 -1
    outer loop
      vertex -76.427 3.23664 -4.5
      vertex -83.073 -2.14683 -4.5
      vertex -77 5 -4.5
    endloop
  endfacet
  facet normal 0 0 -1
    outer loop
      vertex -84.927 -2.14683 -4.5
      vertex -77 5 -4.5
      vertex -83.073 -2.14683 -4.5
    endloop
  endfacet
  facet normal -0 0 -1
    outer loop
      vertex -77 5 -4.5
      vertex -84.927 -2.14683 -4.5
      vertex -90 10 -4.5
    endloop
  endfacet
  facet normal 0 0 -1
    outer loop
      vertex -90 10 -4.5
      vertex -84.927 -2.14683 -4.5
      vertex -86.427 -3.23664 -4.5
    endloop
  endfacet
  facet normal 0 0 -1
    outer loop
      vertex -90 10 -4.5
      vertex -87 -5 -4.5
      vertex -90 -10 -4.5
    endloop
  endfacet
  facet normal 0 0 -1
    outer loop
      vertex -73.073 7.85317 -4.5
      vertex -90 10 -4.5
      vertex -55.6159 10 -4.5
    endloop
  endfacet
  facet normal 0 0 -1
    outer loop
      vertex -76.427 6.76336 -4.5
      vertex -90 10 -4.5
      vertex -74.927 7.85317 -4.5
    endloop
  endfacet
  facet normal 0 0 -1
    outer loop
      vertex -77 5 -4.5
      vertex -90 10 -4.5
      vertex -76.427 6.76336 -4.5
    endloop
  endfacet
  facet normal 0 0 -1
    outer loop
      vertex -87 -5 -4.5
      vertex -90 10 -4.5
      vertex -86.427 -3.23664 -4.5
    endloop
  endfacet
  facet normal 0 0 -1
    outer loop
      vertex 55.6159 10 -4.5
      vertex 51.2627 10.8962 -4.5
      vertex 55.4286 11.7817 -4.5
    endloop
  endfacet
  facet normal -0 0 -1
    outer loop
      vertex 55.4286 11.7817 -4.5
      vertex 51.2627 10.8962 -4.5
      vertex 51.7678 23.0485 -4.5
    endloop
  endfacet
  facet normal 0 0 -1
    outer loop
      vertex 47.877 21.3162 -4.5
      vertex 51.7678 23.0485 -4.5
      vertex 51.2627 10.8962 -4.5
    endloop
  endfacet
  facet normal 0 0 -1
    outer loop
      vertex 47.877 21.3162 -4.5
      vertex 45.8445 33.308 -4.5
      vertex 51.7678 23.0485 -4.5
    endloop
  endfacet
  facet normal 0 0 -1
    outer loop
      vertex 42.3989 30.8046 -4.5
      vertex 45.8445 33.308 -4.5
      vertex 47.877 21.3162 -4.5
    endloop
  endfacet
  facet normal 0 0 -1
    outer loop
      vertex 42.3989 30.8046 -4.5
      vertex 37.9176 42.1117 -4.5
      vertex 45.8445 33.308 -4.5
    endloop
  endfacet
  facet normal 0 0 -1
    outer loop
      vertex 35.0678 38.9467 -4.5
      vertex 37.9176 42.1117 -4.5
      vertex 42.3989 30.8046 -4.5
    endloop
  endfacet
  facet normal 0 0 -1
    outer loop
      vertex 35.0678 38.9467 -4.5
      vertex 28.3335 49.075 -4.5
      vertex 37.9176 42.1117 -4.5
    endloop
  endfacet
  facet normal 0 0 -1
    outer loop
      vertex 26.204 45.3866 -4.5
      vertex 28.3335 49.075 -4.5
      vertex 35.0678 38.9467 -4.5
    endloop
  endfacet
  facet normal 0 0 -1
    outer loop
      vertex 26.204 45.3866 -4.5
      vertex 17.511 53.8935 -4.5
      vertex 28.3335 49.075 -4.5
    endloop
  endfacet
  facet normal 0 0 -1
    outer loop
      vertex 16.1949 49.8429 -4.5
      vertex 17.511 53.8935 -4.5
      vertex 26.204 45.3866 -4.5
    endloop
  endfacet
  facet normal 0 0 -1
    outer loop
      vertex 16.1949 49.8429 -4.5
      vertex 5.92331 56.3565 -4.5
      vertex 17.511 53.8935 -4.5
    endloop
  endfacet
  facet normal 0 0 -1
    outer loop
      vertex 5.47812 52.1208 -4.5
      vertex 5.92331 56.3565 -4.5
      vertex 16.1949 49.8429 -4.5
    endloop
  endfacet
  facet normal 0 0 -1
    outer loop
      vertex -5.47812 52.1208 -4.5
      vertex 5.92331 56.3565 -4.5
      vertex 5.47812 52.1208 -4.5
    endloop
  endfacet
  facet normal 0 0 -1
    outer loop
      vertex -5.47812 52.1208 -4.5
      vertex -5.92331 56.3565 -4.5
      vertex 5.92331 56.3565 -4.5
    endloop
  endfacet
  facet normal 0 0 -1
    outer loop
      vertex -16.1949 49.8429 -4.5
      vertex -5.92331 56.3565 -4.5
      vertex -5.47812 52.1208 -4.5
    endloop
  endfacet
  facet normal 0 0 -1
    outer loop
      vertex -16.1949 49.8429 -4.5
      vertex -17.511 53.8935 -4.5
      vertex -5.92331 56.3565 -4.5
    endloop
  endfacet
  facet normal 0 0 -1
    outer loop
      vertex -26.204 45.3866 -4.5
      vertex -17.511 53.8935 -4.5
      vertex -16.1949 49.8429 -4.5
    endloop
  endfacet
  facet normal 0 0 -1
    outer loop
      vertex -26.204 45.3866 -4.5
      vertex -28.3335 49.075 -4.5
      vertex -17.511 53.8935 -4.5
    endloop
  endfacet
  facet normal 0 0 -1
    outer loop
      vertex -35.0678 38.9467 -4.5
      vertex -28.3335 49.075 -4.5
      vertex -26.204 45.3866 -4.5
    endloop
  endfacet
  facet normal 0 0 -1
    outer loop
      vertex -35.0678 38.9467 -4.5
      vertex -37.9176 42.1117 -4.5
      vertex -28.3335 49.075 -4.5
    endloop
  endfacet
  facet normal 0 0 -1
    outer loop
      vertex -42.3989 30.8046 -4.5
      vertex -37.9176 42.1117 -4.5
      vertex -35.0678 38.9467 -4.5
    endloop
  endfacet
  facet normal 0 0 -1
    outer loop
      vertex -42.3989 30.8046 -4.5
      vertex -45.8445 33.308 -4.5
      vertex -37.9176 42.1117 -4.5
    endloop
  endfacet
  facet normal 0 0 -1
    outer loop
      vertex -47.877 21.3162 -4.5
      vertex -45.8445 33.308 -4.5
      vertex -42.3989 30.8046 -4.5
    endloop
  endfacet
  facet normal 0 0 -1
    outer loop
      vertex -51.7678 23.0485 -4.5
      vertex -47.877 21.3162 -4.5
      vertex -51.2627 10.8962 -4.5
    endloop
  endfacet
  facet normal 0 0 -1
    outer loop
      vertex -47.877 21.3162 -4.5
      vertex -51.7678 23.0485 -4.5
      vertex -45.8445 33.308 -4.5
    endloop
  endfacet
  facet normal 0 0 -1
    outer loop
      vertex -55.6159 10 -4.5
      vertex -51.2627 10.8962 -4.5
      vertex -52.4079 0 -4.5
    endloop
  endfacet
  facet normal 0 0 -1
    outer loop
      vertex -51.2627 -10.8962 -4.5
      vertex -55.6159 -10 -4.5
      vertex -52.4079 0 -4.5
    endloop
  endfacet
  facet normal 0 0 -1
    outer loop
      vertex -71.573 3.23664 -4.5
      vertex -52.4079 0 -4.5
      vertex -55.6159 -10 -4.5
    endloop
  endfacet
  facet normal -0 0 -1
    outer loop
      vertex -51.2627 10.8962 -4.5
      vertex -55.6159 10 -4.5
      vertex -55.4286 11.7817 -4.5
    endloop
  endfacet
  facet normal 0 0 -1
    outer loop
      vertex -51.2627 10.8962 -4.5
      vertex -55.4286 11.7817 -4.5
      vertex -51.7678 23.0485 -4.5
    endloop
  endfacet
  facet normal 0 -0 -1
    outer loop
      vertex -71 5 -4.5
      vertex -52.4079 0 -4.5
      vertex -71.573 3.23664 -4.5
    endloop
  endfacet
  facet normal 0 0 -1
    outer loop
      vertex -52.4079 0 -4.5
      vertex -71 5 -4.5
      vertex -55.6159 10 -4.5
    endloop
  endfacet
  facet normal 0 0 -1
    outer loop
      vertex -55.6159 -10 -4.5
      vertex -73.073 2.14683 -4.5
      vertex -71.573 3.23664 -4.5
    endloop
  endfacet
  facet normal 0 0 -1
    outer loop
      vertex -81.573 -6.76336 -4.5
      vertex -73.073 2.14683 -4.5
      vertex -55.6159 -10 -4.5
    endloop
  endfacet
  facet normal -0 0 -1
    outer loop
      vertex -74.927 2.14683 -4.5
      vertex -81.573 -3.23664 -4.5
      vertex -76.427 3.23664 -4.5
    endloop
  endfacet
  facet normal 0 0 -1
    outer loop
      vertex -81.573 -3.23664 -4.5
      vertex -74.927 2.14683 -4.5
      vertex -81 -5 -4.5
    endloop
  endfacet
  facet normal -0 0 -1
    outer loop
      vertex -73.073 2.14683 -4.5
      vertex -81 -5 -4.5
      vertex -74.927 2.14683 -4.5
    endloop
  endfacet
  facet normal 0 0 -1
    outer loop
      vertex -73.073 2.14683 -4.5
      vertex -81.573 -6.76336 -4.5
      vertex -81 -5 -4.5
    endloop
  endfacet
  facet normal 0 0 -1
    outer loop
      vertex -55.6159 -10 -4.5
      vertex -83.073 -7.85317 -4.5
      vertex -81.573 -6.76336 -4.5
    endloop
  endfacet
  facet normal 0 0 -1
    outer loop
      vertex -90 -10 -4.5
      vertex -83.073 -7.85317 -4.5
      vertex -55.6159 -10 -4.5
    endloop
  endfacet
  facet normal -0 0 -1
    outer loop
      vertex -86.427 -6.76336 -4.5
      vertex -90 -10 -4.5
      vertex -87 -5 -4.5
    endloop
  endfacet
  facet normal -0 0 -1
    outer loop
      vertex -84.927 -7.85317 -4.5
      vertex -90 -10 -4.5
      vertex -86.427 -6.76336 -4.5
    endloop
  endfacet
  facet normal -0 0 -1
    outer loop
      vertex -83.073 -7.85317 -4.5
      vertex -90 -10 -4.5
      vertex -84.927 -7.85317 -4.5
    endloop
  endfacet
  facet normal 0 0 -1
    outer loop
      vertex 90 -10 -4.5
      vertex 87 5 -4.5
      vertex 90 10 -4.5
    endloop
  endfacet
  facet normal 0 0 -1
    outer loop
      vertex 90 -10 -4.5
      vertex 86.427 3.23664 -4.5
      vertex 87 5 -4.5
    endloop
  endfacet
  facet normal 0 0 -1
    outer loop
      vertex 90 -10 -4.5
      vertex 84.927 2.14683 -4.5
      vertex 86.427 3.23664 -4.5
    endloop
  endfacet
  facet normal 0 0 -1
    outer loop
      vertex 77 -5 -4.5
      vertex 84.927 2.14683 -4.5
      vertex 90 -10 -4.5
    endloop
  endfacet
  facet normal -0 0 -1
    outer loop
      vertex 84.927 2.14683 -4.5
      vertex 77 -5 -4.5
      vertex 83.073 2.14683 -4.5
    endloop
  endfacet
  facet normal -0 0 -1
    outer loop
      vertex 83.073 2.14683 -4.5
      vertex 76.427 -3.23664 -4.5
      vertex 81.573 3.23664 -4.5
    endloop
  endfacet
  facet normal 0 0 -1
    outer loop
      vertex 76.427 -3.23664 -4.5
      vertex 83.073 2.14683 -4.5
      vertex 77 -5 -4.5
    endloop
  endfacet
  facet normal 0 0 -1
    outer loop
      vertex 90 -10 -4.5
      vertex 76.427 -6.76336 -4.5
      vertex 77 -5 -4.5
    endloop
  endfacet
  facet normal 0 0 -1
    outer loop
      vertex 90 -10 -4.5
      vertex 74.927 -7.85317 -4.5
      vertex 76.427 -6.76336 -4.5
    endloop
  endfacet
  facet normal 0 0 -1
    outer loop
      vertex 90 -10 -4.5
      vertex 73.073 -7.85317 -4.5
      vertex 74.927 -7.85317 -4.5
    endloop
  endfacet
  facet normal -0 0 -1
    outer loop
      vertex 71.573 -6.76336 -4.5
      vertex 55.6159 -10 -4.5
      vertex 71 -5 -4.5
    endloop
  endfacet
  facet normal -0 0 -1
    outer loop
      vertex 73.073 -7.85317 -4.5
      vertex 55.6159 -10 -4.5
      vertex 71.573 -6.76336 -4.5
    endloop
  endfacet
  facet normal 0 0 -1
    outer loop
      vertex 55.6159 -10 -4.5
      vertex 73.073 -7.85317 -4.5
      vertex 90 -10 -4.5
    endloop
  endfacet
  facet normal 0 0 -1
    outer loop
      vertex 86.427 6.76336 -4.5
      vertex 90 10 -4.5
      vertex 87 5 -4.5
    endloop
  endfacet
  facet normal 0 0 -1
    outer loop
      vertex 84.927 7.85317 -4.5
      vertex 90 10 -4.5
      vertex 86.427 6.76336 -4.5
    endloop
  endfacet
  facet normal 0 0 -1
    outer loop
      vertex 83.073 7.85317 -4.5
      vertex 90 10 -4.5
      vertex 84.927 7.85317 -4.5
    endloop
  endfacet
  facet normal 0 0 -1
    outer loop
      vertex 74.927 -2.14683 -4.5
      vertex 81.573 3.23664 -4.5
      vertex 76.427 -3.23664 -4.5
    endloop
  endfacet
  facet normal -0 0 -1
    outer loop
      vertex 81.573 3.23664 -4.5
      vertex 74.927 -2.14683 -4.5
      vertex 81 5 -4.5
    endloop
  endfacet
  facet normal 0 0 -1
    outer loop
      vertex 73.073 -2.14683 -4.5
      vertex 81 5 -4.5
      vertex 74.927 -2.14683 -4.5
    endloop
  endfacet
  facet normal -0 0 -1
    outer loop
      vertex 81 5 -4.5
      vertex 73.073 -2.14683 -4.5
      vertex 81.573 6.76336 -4.5
    endloop
  endfacet
  facet normal 0 0 -1
    outer loop
      vertex 55.6159 10 -4.5
      vertex 73.073 -2.14683 -4.5
      vertex 71.573 -3.23664 -4.5
    endloop
  endfacet
  facet normal 0 0 -1
    outer loop
      vertex 52.4079 0 -4.5
      vertex 71 -5 -4.5
      vertex 55.6159 -10 -4.5
    endloop
  endfacet
  facet normal 0 0 -1
    outer loop
      vertex 71 -5 -4.5
      vertex 52.4079 0 -4.5
      vertex 71.573 -3.23664 -4.5
    endloop
  endfacet
  facet normal 0 -0 -1
    outer loop
      vertex 55.6159 10 -4.5
      vertex 71.573 -3.23664 -4.5
      vertex 52.4079 0 -4.5
    endloop
  endfacet
  facet normal 0 0 -1
    outer loop
      vertex 83.073 7.85317 -4.5
      vertex 55.6159 10 -4.5
      vertex 90 10 -4.5
    endloop
  endfacet
  facet normal 0 0 -1
    outer loop
      vertex 73.073 -2.14683 -4.5
      vertex 55.6159 10 -4.5
      vertex 81.573 6.76336 -4.5
    endloop
  endfacet
  facet normal 0 0 -1
    outer loop
      vertex 51.2627 -10.8962 -4.5
      vertex 55.6159 -10 -4.5
      vertex 55.4286 -11.7817 -4.5
    endloop
  endfacet
  facet normal 0 0 -1
    outer loop
      vertex 81.573 6.76336 -4.5
      vertex 55.6159 10 -4.5
      vertex 83.073 7.85317 -4.5
    endloop
  endfacet
  facet normal 0 0 -1
    outer loop
      vertex 51.2627 10.8962 -4.5
      vertex 55.6159 10 -4.5
      vertex 52.4079 0 -4.5
    endloop
  endfacet
  facet normal 0 0 -1
    outer loop
      vertex 51.2627 -10.8962 -4.5
      vertex 55.4286 -11.7817 -4.5
      vertex 51.7678 -23.0485 -4.5
    endloop
  endfacet
  facet normal -0 0 -1
    outer loop
      vertex 55.6159 -10 -4.5
      vertex 51.2627 -10.8962 -4.5
      vertex 52.4079 0 -4.5
    endloop
  endfacet
  facet normal 0 0 -1
    outer loop
      vertex 51.7678 -23.0485 -4.5
      vertex 47.877 -21.3162 -4.5
      vertex 51.2627 -10.8962 -4.5
    endloop
  endfacet
  facet normal 0 0 -1
    outer loop
      vertex 45.8445 -33.308 -4.5
      vertex 47.877 -21.3162 -4.5
      vertex 51.7678 -23.0485 -4.5
    endloop
  endfacet
  facet normal 0 0 -1
    outer loop
      vertex 45.8445 -33.308 -4.5
      vertex 42.3989 -30.8046 -4.5
      vertex 47.877 -21.3162 -4.5
    endloop
  endfacet
  facet normal 0 0 -1
    outer loop
      vertex 37.9176 -42.1117 -4.5
      vertex 42.3989 -30.8046 -4.5
      vertex 45.8445 -33.308 -4.5
    endloop
  endfacet
  facet normal 0 0 -1
    outer loop
      vertex 37.9176 -42.1117 -4.5
      vertex 35.0678 -38.9467 -4.5
      vertex 42.3989 -30.8046 -4.5
    endloop
  endfacet
  facet normal 0 0 -1
    outer loop
      vertex 28.3335 -49.075 -4.5
      vertex 35.0678 -38.9467 -4.5
      vertex 37.9176 -42.1117 -4.5
    endloop
  endfacet
  facet normal 0 0 -1
    outer loop
      vertex 28.3335 -49.075 -4.5
      vertex 26.204 -45.3866 -4.5
      vertex 35.0678 -38.9467 -4.5
    endloop
  endfacet
  facet normal 0 0 -1
    outer loop
      vertex 17.511 -53.8935 -4.5
      vertex 26.204 -45.3866 -4.5
      vertex 28.3335 -49.075 -4.5
    endloop
  endfacet
  facet normal 0 0 -1
    outer loop
      vertex 17.511 -53.8935 -4.5
      vertex 16.1949 -49.8429 -4.5
      vertex 26.204 -45.3866 -4.5
    endloop
  endfacet
  facet normal 0 0 -1
    outer loop
      vertex 5.92331 -56.3565 -4.5
      vertex 16.1949 -49.8429 -4.5
      vertex 17.511 -53.8935 -4.5
    endloop
  endfacet
  facet normal 0 0 -1
    outer loop
      vertex 5.92331 -56.3565 -4.5
      vertex 5.47812 -52.1208 -4.5
      vertex 16.1949 -49.8429 -4.5
    endloop
  endfacet
  facet normal 0 0 -1
    outer loop
      vertex 5.92331 -56.3565 -4.5
      vertex -5.47812 -52.1208 -4.5
      vertex 5.47812 -52.1208 -4.5
    endloop
  endfacet
  facet normal 0 0 -1
    outer loop
      vertex -5.92331 -56.3565 -4.5
      vertex -5.47812 -52.1208 -4.5
      vertex 5.92331 -56.3565 -4.5
    endloop
  endfacet
  facet normal 0 0 -1
    outer loop
      vertex -5.92331 -56.3565 -4.5
      vertex -16.1949 -49.8429 -4.5
      vertex -5.47812 -52.1208 -4.5
    endloop
  endfacet
  facet normal 0 0 -1
    outer loop
      vertex -17.511 -53.8935 -4.5
      vertex -16.1949 -49.8429 -4.5
      vertex -5.92331 -56.3565 -4.5
    endloop
  endfacet
  facet normal 0 0 -1
    outer loop
      vertex -17.511 -53.8935 -4.5
      vertex -26.204 -45.3866 -4.5
      vertex -16.1949 -49.8429 -4.5
    endloop
  endfacet
  facet normal 0 0 -1
    outer loop
      vertex -28.3335 -49.075 -4.5
      vertex -26.204 -45.3866 -4.5
      vertex -17.511 -53.8935 -4.5
    endloop
  endfacet
  facet normal 0 0 -1
    outer loop
      vertex -28.3335 -49.075 -4.5
      vertex -35.0678 -38.9467 -4.5
      vertex -26.204 -45.3866 -4.5
    endloop
  endfacet
  facet normal 0 0 -1
    outer loop
      vertex -37.9176 -42.1117 -4.5
      vertex -35.0678 -38.9467 -4.5
      vertex -28.3335 -49.075 -4.5
    endloop
  endfacet
  facet normal 0 0 -1
    outer loop
      vertex -37.9176 -42.1117 -4.5
      vertex -42.3989 -30.8046 -4.5
      vertex -35.0678 -38.9467 -4.5
    endloop
  endfacet
  facet normal 0 0 -1
    outer loop
      vertex -45.8445 -33.308 -4.5
      vertex -42.3989 -30.8046 -4.5
      vertex -37.9176 -42.1117 -4.5
    endloop
  endfacet
  facet normal 0 0 -1
    outer loop
      vertex -45.8445 -33.308 -4.5
      vertex -47.877 -21.3162 -4.5
      vertex -42.3989 -30.8046 -4.5
    endloop
  endfacet
  facet normal 0 0 -1
    outer loop
      vertex -51.7678 -23.0485 -4.5
      vertex -47.877 -21.3162 -4.5
      vertex -45.8445 -33.308 -4.5
    endloop
  endfacet
  facet normal -0 0 -1
    outer loop
      vertex -47.877 -21.3162 -4.5
      vertex -51.7678 -23.0485 -4.5
      vertex -51.2627 -10.8962 -4.5
    endloop
  endfacet
  facet normal 0 0 -1
    outer loop
      vertex -55.4286 -11.7817 -4.5
      vertex -51.2627 -10.8962 -4.5
      vertex -51.7678 -23.0485 -4.5
    endloop
  endfacet
  facet normal 0 0 -1
    outer loop
      vertex -55.6159 -10 -4.5
      vertex -51.2627 -10.8962 -4.5
      vertex -55.4286 -11.7817 -4.5
    endloop
  endfacet
  facet normal 0 1 -0
    outer loop
      vertex 90 10 -4.5
      vertex 55.6159 10 4.5
      vertex 90 10 4.5
    endloop
  endfacet
  facet normal 0 1 0
    outer loop
      vertex 55.6159 10 4.5
      vertex 90 10 -4.5
      vertex 55.6159 10 -4.5
    endloop
  endfacet
  facet normal 0 1 -0
    outer loop
      vertex -55.6159 10 -4.5
      vertex -90 10 4.5
      vertex -55.6159 10 4.5
    endloop
  endfacet
  facet normal 0 1 0
    outer loop
      vertex -90 10 4.5
      vertex -55.6159 10 -4.5
      vertex -90 10 -4.5
    endloop
  endfacet
  facet normal 0 -1 0
    outer loop
      vertex 55.6159 -10 -4.5
      vertex 90 -10 4.5
      vertex 55.6159 -10 4.5
    endloop
  endfacet
  facet normal 0 -1 -0
    outer loop
      vertex 90 -10 4.5
      vertex 55.6159 -10 -4.5
      vertex 90 -10 -4.5
    endloop
  endfacet
  facet normal 0 -1 0
    outer loop
      vertex -90 -10 -4.5
      vertex -55.6159 -10 4.5
      vertex -90 -10 4.5
    endloop
  endfacet
  facet normal 0 -1 -0
    outer loop
      vertex -55.6159 -10 4.5
      vertex -90 -10 -4.5
      vertex -55.6159 -10 -4.5
    endloop
  endfacet
  facet normal -1 0 0
    outer loop
      vertex -90 -10 -4.5
      vertex -90 10 4.5
      vertex -90 10 -4.5
    endloop
  endfacet
  facet normal -1 -0 0
    outer loop
      vertex -90 10 4.5
      vertex -90 -10 -4.5
      vertex -90 -10 4.5
    endloop
  endfacet
  facet normal 0.951057 0.309017 0
    outer loop
      vertex 55.4286 11.7817 4.5
      vertex 51.7678 23.0485 -4.5
      vertex 51.7678 23.0485 4.5
    endloop
  endfacet
  facet normal 0.951057 0.309017 0
    outer loop
      vertex 51.7678 23.0485 -4.5
      vertex 55.4286 11.7817 4.5
      vertex 55.4286 11.7817 -4.5
    endloop
  endfacet
  facet normal 0.99452 0.104548 0
    outer loop
      vertex 55.6159 10 4.5
      vertex 55.4286 11.7817 -4.5
      vertex 55.4286 11.7817 4.5
    endloop
  endfacet
  facet normal 0.99452 0.104548 0
    outer loop
      vertex 55.4286 11.7817 -4.5
      vertex 55.6159 10 4.5
      vertex 55.6159 10 -4.5
    endloop
  endfacet
  facet normal 0.866026 0.499998 0
    outer loop
      vertex 51.7678 23.0485 4.5
      vertex 45.8445 33.308 -4.5
      vertex 45.8445 33.308 4.5
    endloop
  endfacet
  facet normal 0.866026 0.499998 0
    outer loop
      vertex 45.8445 33.308 -4.5
      vertex 51.7678 23.0485 4.5
      vertex 51.7678 23.0485 -4.5
    endloop
  endfacet
  facet normal -0.743144 -0.669131 0
    outer loop
      vertex -37.9176 -42.1117 -4.5
      vertex -45.8445 -33.308 4.5
      vertex -45.8445 -33.308 -4.5
    endloop
  endfacet
  facet normal -0.743144 -0.669131 0
    outer loop
      vertex -45.8445 -33.308 4.5
      vertex -37.9176 -42.1117 -4.5
      vertex -37.9176 -42.1117 4.5
    endloop
  endfacet
  facet normal -0.99452 -0.104548 0
    outer loop
      vertex -55.4286 -11.7817 -4.5
      vertex -55.6159 -10 4.5
      vertex -55.6159 -10 -4.5
    endloop
  endfacet
  facet normal -0.99452 -0.104548 0
    outer loop
      vertex -55.6159 -10 4.5
      vertex -55.4286 -11.7817 -4.5
      vertex -55.4286 -11.7817 4.5
    endloop
  endfacet
  facet normal 0.99452 -0.104548 0
    outer loop
      vertex 55.4286 -11.7817 4.5
      vertex 55.6159 -10 -4.5
      vertex 55.6159 -10 4.5
    endloop
  endfacet
  facet normal 0.99452 -0.104548 0
    outer loop
      vertex 55.6159 -10 -4.5
      vertex 55.4286 -11.7817 4.5
      vertex 55.4286 -11.7817 -4.5
    endloop
  endfacet
  facet normal 0.866026 -0.499998 0
    outer loop
      vertex 45.8445 -33.308 4.5
      vertex 51.7678 -23.0485 -4.5
      vertex 51.7678 -23.0485 4.5
    endloop
  endfacet
  facet normal 0.866026 -0.499998 0
    outer loop
      vertex 51.7678 -23.0485 -4.5
      vertex 45.8445 -33.308 4.5
      vertex 45.8445 -33.308 -4.5
    endloop
  endfacet
  facet normal 0.406738 0.913545 -0
    outer loop
      vertex 28.3335 49.075 -4.5
      vertex 17.511 53.8935 4.5
      vertex 28.3335 49.075 4.5
    endloop
  endfacet
  facet normal 0.406738 0.913545 0
    outer loop
      vertex 17.511 53.8935 4.5
      vertex 28.3335 49.075 -4.5
      vertex 17.511 53.8935 -4.5
    endloop
  endfacet
  facet normal 0.743144 0.669131 0
    outer loop
      vertex 45.8445 33.308 4.5
      vertex 37.9176 42.1117 -4.5
      vertex 37.9176 42.1117 4.5
    endloop
  endfacet
  facet normal 0.743144 0.669131 0
    outer loop
      vertex 37.9176 42.1117 -4.5
      vertex 45.8445 33.308 4.5
      vertex 45.8445 33.308 -4.5
    endloop
  endfacet
  facet normal -0.587788 0.809015 0
    outer loop
      vertex -28.3335 49.075 -4.5
      vertex -37.9176 42.1117 4.5
      vertex -28.3335 49.075 4.5
    endloop
  endfacet
  facet normal -0.587788 0.809015 0
    outer loop
      vertex -37.9176 42.1117 4.5
      vertex -28.3335 49.075 -4.5
      vertex -37.9176 42.1117 -4.5
    endloop
  endfacet
  facet normal 0.743144 -0.669131 0
    outer loop
      vertex 37.9176 -42.1117 4.5
      vertex 45.8445 -33.308 -4.5
      vertex 45.8445 -33.308 4.5
    endloop
  endfacet
  facet normal 0.743144 -0.669131 0
    outer loop
      vertex 45.8445 -33.308 -4.5
      vertex 37.9176 -42.1117 4.5
      vertex 37.9176 -42.1117 -4.5
    endloop
  endfacet
  facet normal -0.99452 0.104548 0
    outer loop
      vertex -55.6159 10 -4.5
      vertex -55.4286 11.7817 4.5
      vertex -55.4286 11.7817 -4.5
    endloop
  endfacet
  facet normal -0.99452 0.104548 0
    outer loop
      vertex -55.4286 11.7817 4.5
      vertex -55.6159 10 -4.5
      vertex -55.6159 10 4.5
    endloop
  endfacet
  facet normal 0.406738 -0.913545 0
    outer loop
      vertex 17.511 -53.8935 -4.5
      vertex 28.3335 -49.075 4.5
      vertex 17.511 -53.8935 4.5
    endloop
  endfacet
  facet normal 0.406738 -0.913545 0
    outer loop
      vertex 28.3335 -49.075 4.5
      vertex 17.511 -53.8935 -4.5
      vertex 28.3335 -49.075 -4.5
    endloop
  endfacet
  facet normal 0.207908 -0.978148 0
    outer loop
      vertex 5.92331 -56.3565 -4.5
      vertex 17.511 -53.8935 4.5
      vertex 5.92331 -56.3565 4.5
    endloop
  endfacet
  facet normal 0.207908 -0.978148 0
    outer loop
      vertex 17.511 -53.8935 4.5
      vertex 5.92331 -56.3565 -4.5
      vertex 17.511 -53.8935 -4.5
    endloop
  endfacet
  facet normal -0.743144 0.669131 0
    outer loop
      vertex -45.8445 33.308 -4.5
      vertex -37.9176 42.1117 4.5
      vertex -37.9176 42.1117 -4.5
    endloop
  endfacet
  facet normal -0.743144 0.669131 0
    outer loop
      vertex -37.9176 42.1117 4.5
      vertex -45.8445 33.308 -4.5
      vertex -45.8445 33.308 4.5
    endloop
  endfacet
  facet normal -0.207908 0.978148 0
    outer loop
      vertex -5.92331 56.3565 -4.5
      vertex -17.511 53.8935 4.5
      vertex -5.92331 56.3565 4.5
    endloop
  endfacet
  facet normal -0.207908 0.978148 0
    outer loop
      vertex -17.511 53.8935 4.5
      vertex -5.92331 56.3565 -4.5
      vertex -17.511 53.8935 -4.5
    endloop
  endfacet
  facet normal 0.587788 -0.809015 0
    outer loop
      vertex 28.3335 -49.075 -4.5
      vertex 37.9176 -42.1117 4.5
      vertex 28.3335 -49.075 4.5
    endloop
  endfacet
  facet normal 0.587788 -0.809015 0
    outer loop
      vertex 37.9176 -42.1117 4.5
      vertex 28.3335 -49.075 -4.5
      vertex 37.9176 -42.1117 -4.5
    endloop
  endfacet
  facet normal -0.951057 0.309017 0
    outer loop
      vertex -55.4286 11.7817 -4.5
      vertex -51.7678 23.0485 4.5
      vertex -51.7678 23.0485 -4.5
    endloop
  endfacet
  facet normal -0.951057 0.309017 0
    outer loop
      vertex -51.7678 23.0485 4.5
      vertex -55.4286 11.7817 -4.5
      vertex -55.4286 11.7817 4.5
    endloop
  endfacet
  facet normal -0.866026 0.499998 0
    outer loop
      vertex -51.7678 23.0485 -4.5
      vertex -45.8445 33.308 4.5
      vertex -45.8445 33.308 -4.5
    endloop
  endfacet
  facet normal -0.866026 0.499998 0
    outer loop
      vertex -45.8445 33.308 4.5
      vertex -51.7678 23.0485 -4.5
      vertex -51.7678 23.0485 4.5
    endloop
  endfacet
  facet normal -0.207908 -0.978148 0
    outer loop
      vertex -17.511 -53.8935 -4.5
      vertex -5.92331 -56.3565 4.5
      vertex -17.511 -53.8935 4.5
    endloop
  endfacet
  facet normal -0.207908 -0.978148 -0
    outer loop
      vertex -5.92331 -56.3565 4.5
      vertex -17.511 -53.8935 -4.5
      vertex -5.92331 -56.3565 -4.5
    endloop
  endfacet
  facet normal -0.406738 0.913545 0
    outer loop
      vertex -17.511 53.8935 -4.5
      vertex -28.3335 49.075 4.5
      vertex -17.511 53.8935 4.5
    endloop
  endfacet
  facet normal -0.406738 0.913545 0
    outer loop
      vertex -28.3335 49.075 4.5
      vertex -17.511 53.8935 -4.5
      vertex -28.3335 49.075 -4.5
    endloop
  endfacet
  facet normal -0.866026 -0.499998 0
    outer loop
      vertex -45.8445 -33.308 -4.5
      vertex -51.7678 -23.0485 4.5
      vertex -51.7678 -23.0485 -4.5
    endloop
  endfacet
  facet normal -0.866026 -0.499998 0
    outer loop
      vertex -51.7678 -23.0485 4.5
      vertex -45.8445 -33.308 -4.5
      vertex -45.8445 -33.308 4.5
    endloop
  endfacet
  facet normal 0.951057 -0.309017 0
    outer loop
      vertex 51.7678 -23.0485 4.5
      vertex 55.4286 -11.7817 -4.5
      vertex 55.4286 -11.7817 4.5
    endloop
  endfacet
  facet normal 0.951057 -0.309017 0
    outer loop
      vertex 55.4286 -11.7817 -4.5
      vertex 51.7678 -23.0485 4.5
      vertex 51.7678 -23.0485 -4.5
    endloop
  endfacet
  facet normal 0 1 -0
    outer loop
      vertex 5.92331 56.3565 -4.5
      vertex -5.92331 56.3565 4.5
      vertex 5.92331 56.3565 4.5
    endloop
  endfacet
  facet normal 0 1 0
    outer loop
      vertex -5.92331 56.3565 4.5
      vertex 5.92331 56.3565 -4.5
      vertex -5.92331 56.3565 -4.5
    endloop
  endfacet
  facet normal 0.587788 0.809015 -0
    outer loop
      vertex 37.9176 42.1117 -4.5
      vertex 28.3335 49.075 4.5
      vertex 37.9176 42.1117 4.5
    endloop
  endfacet
  facet normal 0.587788 0.809015 0
    outer loop
      vertex 28.3335 49.075 4.5
      vertex 37.9176 42.1117 -4.5
      vertex 28.3335 49.075 -4.5
    endloop
  endfacet
  facet normal 0.207908 0.978148 -0
    outer loop
      vertex 17.511 53.8935 -4.5
      vertex 5.92331 56.3565 4.5
      vertex 17.511 53.8935 4.5
    endloop
  endfacet
  facet normal 0.207908 0.978148 0
    outer loop
      vertex 5.92331 56.3565 4.5
      vertex 17.511 53.8935 -4.5
      vertex 5.92331 56.3565 -4.5
    endloop
  endfacet
  facet normal -0.951057 -0.309017 0
    outer loop
      vertex -51.7678 -23.0485 -4.5
      vertex -55.4286 -11.7817 4.5
      vertex -55.4286 -11.7817 -4.5
    endloop
  endfacet
  facet normal -0.951057 -0.309017 0
    outer loop
      vertex -55.4286 -11.7817 4.5
      vertex -51.7678 -23.0485 -4.5
      vertex -51.7678 -23.0485 4.5
    endloop
  endfacet
  facet normal 0 -1 0
    outer loop
      vertex -5.92331 -56.3565 -4.5
      vertex 5.92331 -56.3565 4.5
      vertex -5.92331 -56.3565 4.5
    endloop
  endfacet
  facet normal 0 -1 -0
    outer loop
      vertex 5.92331 -56.3565 4.5
      vertex -5.92331 -56.3565 -4.5
      vertex 5.92331 -56.3565 -4.5
    endloop
  endfacet
  facet normal -0.406738 -0.913545 0
    outer loop
      vertex -28.3335 -49.075 -4.5
      vertex -17.511 -53.8935 4.5
      vertex -28.3335 -49.075 4.5
    endloop
  endfacet
  facet normal -0.406738 -0.913545 -0
    outer loop
      vertex -17.511 -53.8935 4.5
      vertex -28.3335 -49.075 -4.5
      vertex -17.511 -53.8935 -4.5
    endloop
  endfacet
  facet normal -0.587788 -0.809015 0
    outer loop
      vertex -37.9176 -42.1117 -4.5
      vertex -28.3335 -49.075 4.5
      vertex -37.9176 -42.1117 4.5
    endloop
  endfacet
  facet normal -0.587788 -0.809015 -0
    outer loop
      vertex -28.3335 -49.075 4.5
      vertex -37.9176 -42.1117 -4.5
      vertex -28.3335 -49.075 -4.5
    endloop
  endfacet
  facet normal -0.587784 0.809018 0
    outer loop
      vertex 35.0678 -38.9467 -4.5
      vertex 26.204 -45.3866 4.5
      vertex 35.0678 -38.9467 4.5
    endloop
  endfacet
  facet normal -0.587784 0.809018 0
    outer loop
      vertex 26.204 -45.3866 4.5
      vertex 35.0678 -38.9467 -4.5
      vertex 26.204 -45.3866 -4.5
    endloop
  endfacet
  facet normal -0.994522 0.104525 0
    outer loop
      vertex 51.2627 -10.8962 -4.5
      vertex 52.4079 0 4.5
      vertex 52.4079 0 -4.5
    endloop
  endfacet
  facet normal -0.994522 0.104525 0
    outer loop
      vertex 52.4079 0 4.5
      vertex 51.2627 -10.8962 -4.5
      vertex 51.2627 -10.8962 4.5
    endloop
  endfacet
  facet normal -0.866027 -0.499998 0
    outer loop
      vertex 47.877 21.3162 -4.5
      vertex 42.3989 30.8046 4.5
      vertex 42.3989 30.8046 -4.5
    endloop
  endfacet
  facet normal -0.866027 -0.499998 0
    outer loop
      vertex 42.3989 30.8046 4.5
      vertex 47.877 21.3162 -4.5
      vertex 47.877 21.3162 4.5
    endloop
  endfacet
  facet normal -0.743148 0.669127 0
    outer loop
      vertex 35.0678 -38.9467 -4.5
      vertex 42.3989 -30.8046 4.5
      vertex 42.3989 -30.8046 -4.5
    endloop
  endfacet
  facet normal -0.743148 0.669127 0
    outer loop
      vertex 42.3989 -30.8046 4.5
      vertex 35.0678 -38.9467 -4.5
      vertex 35.0678 -38.9467 4.5
    endloop
  endfacet
  facet normal 0 -1 0
    outer loop
      vertex -5.47812 52.1208 -4.5
      vertex 5.47812 52.1208 4.5
      vertex -5.47812 52.1208 4.5
    endloop
  endfacet
  facet normal 0 -1 -0
    outer loop
      vertex 5.47812 52.1208 4.5
      vertex -5.47812 52.1208 -4.5
      vertex 5.47812 52.1208 -4.5
    endloop
  endfacet
  facet normal -0.994522 -0.104525 0
    outer loop
      vertex 52.4079 0 -4.5
      vertex 51.2627 10.8962 4.5
      vertex 51.2627 10.8962 -4.5
    endloop
  endfacet
  facet normal -0.994522 -0.104525 0
    outer loop
      vertex 51.2627 10.8962 4.5
      vertex 52.4079 0 -4.5
      vertex 52.4079 0 4.5
    endloop
  endfacet
  facet normal 0.587784 0.809018 -0
    outer loop
      vertex -26.204 -45.3866 -4.5
      vertex -35.0678 -38.9467 4.5
      vertex -26.204 -45.3866 4.5
    endloop
  endfacet
  facet normal 0.587784 0.809018 0
    outer loop
      vertex -35.0678 -38.9467 4.5
      vertex -26.204 -45.3866 -4.5
      vertex -35.0678 -38.9467 -4.5
    endloop
  endfacet
  facet normal -0.406734 0.913547 0
    outer loop
      vertex 26.204 -45.3866 -4.5
      vertex 16.1949 -49.8429 4.5
      vertex 26.204 -45.3866 4.5
    endloop
  endfacet
  facet normal -0.406734 0.913547 0
    outer loop
      vertex 16.1949 -49.8429 4.5
      vertex 26.204 -45.3866 -4.5
      vertex 16.1949 -49.8429 -4.5
    endloop
  endfacet
  facet normal 0.20791 0.978148 -0
    outer loop
      vertex -5.47812 -52.1208 -4.5
      vertex -16.1949 -49.8429 4.5
      vertex -5.47812 -52.1208 4.5
    endloop
  endfacet
  facet normal 0.20791 0.978148 0
    outer loop
      vertex -16.1949 -49.8429 4.5
      vertex -5.47812 -52.1208 -4.5
      vertex -16.1949 -49.8429 -4.5
    endloop
  endfacet
  facet normal -0.951056 -0.30902 0
    outer loop
      vertex 51.2627 10.8962 -4.5
      vertex 47.877 21.3162 4.5
      vertex 47.877 21.3162 -4.5
    endloop
  endfacet
  facet normal -0.951056 -0.30902 0
    outer loop
      vertex 47.877 21.3162 4.5
      vertex 51.2627 10.8962 -4.5
      vertex 51.2627 10.8962 4.5
    endloop
  endfacet
  facet normal 0.951056 0.30902 0
    outer loop
      vertex -47.877 -21.3162 4.5
      vertex -51.2627 -10.8962 -4.5
      vertex -51.2627 -10.8962 4.5
    endloop
  endfacet
  facet normal 0.951056 0.30902 0
    outer loop
      vertex -51.2627 -10.8962 -4.5
      vertex -47.877 -21.3162 4.5
      vertex -47.877 -21.3162 -4.5
    endloop
  endfacet
  facet normal 0.951056 -0.30902 0
    outer loop
      vertex -51.2627 10.8962 4.5
      vertex -47.877 21.3162 -4.5
      vertex -47.877 21.3162 4.5
    endloop
  endfacet
  facet normal 0.951056 -0.30902 0
    outer loop
      vertex -47.877 21.3162 -4.5
      vertex -51.2627 10.8962 4.5
      vertex -51.2627 10.8962 -4.5
    endloop
  endfacet
  facet normal 0.587784 -0.809018 0
    outer loop
      vertex -35.0678 38.9467 -4.5
      vertex -26.204 45.3866 4.5
      vertex -35.0678 38.9467 4.5
    endloop
  endfacet
  facet normal 0.587784 -0.809018 0
    outer loop
      vertex -26.204 45.3866 4.5
      vertex -35.0678 38.9467 -4.5
      vertex -26.204 45.3866 -4.5
    endloop
  endfacet
  facet normal -0.406734 -0.913547 0
    outer loop
      vertex 16.1949 49.8429 -4.5
      vertex 26.204 45.3866 4.5
      vertex 16.1949 49.8429 4.5
    endloop
  endfacet
  facet normal -0.406734 -0.913547 -0
    outer loop
      vertex 26.204 45.3866 4.5
      vertex 16.1949 49.8429 -4.5
      vertex 26.204 45.3866 -4.5
    endloop
  endfacet
  facet normal 0.406734 0.913547 -0
    outer loop
      vertex -16.1949 -49.8429 -4.5
      vertex -26.204 -45.3866 4.5
      vertex -16.1949 -49.8429 4.5
    endloop
  endfacet
  facet normal 0.406734 0.913547 0
    outer loop
      vertex -26.204 -45.3866 4.5
      vertex -16.1949 -49.8429 -4.5
      vertex -26.204 -45.3866 -4.5
    endloop
  endfacet
  facet normal 0.994522 -0.104525 0
    outer loop
      vertex -52.4079 0 4.5
      vertex -51.2627 10.8962 -4.5
      vertex -51.2627 10.8962 4.5
    endloop
  endfacet
  facet normal 0.994522 -0.104525 0
    outer loop
      vertex -51.2627 10.8962 -4.5
      vertex -52.4079 0 4.5
      vertex -52.4079 0 -4.5
    endloop
  endfacet
  facet normal -0.866027 0.499998 0
    outer loop
      vertex 42.3989 -30.8046 -4.5
      vertex 47.877 -21.3162 4.5
      vertex 47.877 -21.3162 -4.5
    endloop
  endfacet
  facet normal -0.866027 0.499998 0
    outer loop
      vertex 47.877 -21.3162 4.5
      vertex 42.3989 -30.8046 -4.5
      vertex 42.3989 -30.8046 4.5
    endloop
  endfacet
  facet normal 0.743148 -0.669127 0
    outer loop
      vertex -42.3989 30.8046 4.5
      vertex -35.0678 38.9467 -4.5
      vertex -35.0678 38.9467 4.5
    endloop
  endfacet
  facet normal 0.743148 -0.669127 0
    outer loop
      vertex -35.0678 38.9467 -4.5
      vertex -42.3989 30.8046 4.5
      vertex -42.3989 30.8046 -4.5
    endloop
  endfacet
  facet normal -0.587784 -0.809018 0
    outer loop
      vertex 26.204 45.3866 -4.5
      vertex 35.0678 38.9467 4.5
      vertex 26.204 45.3866 4.5
    endloop
  endfacet
  facet normal -0.587784 -0.809018 -0
    outer loop
      vertex 35.0678 38.9467 4.5
      vertex 26.204 45.3866 -4.5
      vertex 35.0678 38.9467 -4.5
    endloop
  endfacet
  facet normal -0.951056 0.30902 0
    outer loop
      vertex 47.877 -21.3162 -4.5
      vertex 51.2627 -10.8962 4.5
      vertex 51.2627 -10.8962 -4.5
    endloop
  endfacet
  facet normal -0.951056 0.30902 0
    outer loop
      vertex 51.2627 -10.8962 4.5
      vertex 47.877 -21.3162 -4.5
      vertex 47.877 -21.3162 4.5
    endloop
  endfacet
  facet normal -0.20791 -0.978148 0
    outer loop
      vertex 5.47812 52.1208 -4.5
      vertex 16.1949 49.8429 4.5
      vertex 5.47812 52.1208 4.5
    endloop
  endfacet
  facet normal -0.20791 -0.978148 -0
    outer loop
      vertex 16.1949 49.8429 4.5
      vertex 5.47812 52.1208 -4.5
      vertex 16.1949 49.8429 -4.5
    endloop
  endfacet
  facet normal -0.743148 -0.669127 0
    outer loop
      vertex 42.3989 30.8046 -4.5
      vertex 35.0678 38.9467 4.5
      vertex 35.0678 38.9467 -4.5
    endloop
  endfacet
  facet normal -0.743148 -0.669127 0
    outer loop
      vertex 35.0678 38.9467 4.5
      vertex 42.3989 30.8046 -4.5
      vertex 42.3989 30.8046 4.5
    endloop
  endfacet
  facet normal 0.20791 -0.978148 0
    outer loop
      vertex -16.1949 49.8429 -4.5
      vertex -5.47812 52.1208 4.5
      vertex -16.1949 49.8429 4.5
    endloop
  endfacet
  facet normal 0.20791 -0.978148 0
    outer loop
      vertex -5.47812 52.1208 4.5
      vertex -16.1949 49.8429 -4.5
      vertex -5.47812 52.1208 -4.5
    endloop
  endfacet
  facet normal 0.743148 0.669127 0
    outer loop
      vertex -35.0678 -38.9467 4.5
      vertex -42.3989 -30.8046 -4.5
      vertex -42.3989 -30.8046 4.5
    endloop
  endfacet
  facet normal 0.743148 0.669127 0
    outer loop
      vertex -42.3989 -30.8046 -4.5
      vertex -35.0678 -38.9467 4.5
      vertex -35.0678 -38.9467 -4.5
    endloop
  endfacet
  facet normal 0.866027 0.499998 0
    outer loop
      vertex -42.3989 -30.8046 4.5
      vertex -47.877 -21.3162 -4.5
      vertex -47.877 -21.3162 4.5
    endloop
  endfacet
  facet normal 0.866027 0.499998 0
    outer loop
      vertex -47.877 -21.3162 -4.5
      vertex -42.3989 -30.8046 4.5
      vertex -42.3989 -30.8046 -4.5
    endloop
  endfacet
  facet normal 0.406734 -0.913547 0
    outer loop
      vertex -26.204 45.3866 -4.5
      vertex -16.1949 49.8429 4.5
      vertex -26.204 45.3866 4.5
    endloop
  endfacet
  facet normal 0.406734 -0.913547 0
    outer loop
      vertex -16.1949 49.8429 4.5
      vertex -26.204 45.3866 -4.5
      vertex -16.1949 49.8429 -4.5
    endloop
  endfacet
  facet normal 0 1 -0
    outer loop
      vertex 5.47812 -52.1208 -4.5
      vertex -5.47812 -52.1208 4.5
      vertex 5.47812 -52.1208 4.5
    endloop
  endfacet
  facet normal 0 1 0
    outer loop
      vertex -5.47812 -52.1208 4.5
      vertex 5.47812 -52.1208 -4.5
      vertex -5.47812 -52.1208 -4.5
    endloop
  endfacet
  facet normal 0.994522 0.104525 0
    outer loop
      vertex -51.2627 -10.8962 4.5
      vertex -52.4079 0 -4.5
      vertex -52.4079 0 4.5
    endloop
  endfacet
  facet normal 0.994522 0.104525 0
    outer loop
      vertex -52.4079 0 -4.5
      vertex -51.2627 -10.8962 4.5
      vertex -51.2627 -10.8962 -4.5
    endloop
  endfacet
  facet normal -0.20791 0.978148 0
    outer loop
      vertex 16.1949 -49.8429 -4.5
      vertex 5.47812 -52.1208 4.5
      vertex 16.1949 -49.8429 4.5
    endloop
  endfacet
  facet normal -0.20791 0.978148 0
    outer loop
      vertex 5.47812 -52.1208 4.5
      vertex 16.1949 -49.8429 -4.5
      vertex 5.47812 -52.1208 -4.5
    endloop
  endfacet
  facet normal 0.866027 -0.499998 0
    outer loop
      vertex -47.877 21.3162 4.5
      vertex -42.3989 30.8046 -4.5
      vertex -42.3989 30.8046 4.5
    endloop
  endfacet
  facet normal 0.866027 -0.499998 0
    outer loop
      vertex -42.3989 30.8046 -4.5
      vertex -47.877 21.3162 4.5
      vertex -47.877 21.3162 -4.5
    endloop
  endfacet
  facet normal 0.951049 -0.309041 0
    outer loop
      vertex 81 5 4.5
      vertex 81.573 6.76336 -4.5
      vertex 81.573 6.76336 4.5
    endloop
  endfacet
  facet normal 0.951049 -0.309041 0
    outer loop
      vertex 81.573 6.76336 -4.5
      vertex 81 5 4.5
      vertex 81 5 -4.5
    endloop
  endfacet
  facet normal 0.587784 0.809018 -0
    outer loop
      vertex 83.073 2.14683 -4.5
      vertex 81.573 3.23664 4.5
      vertex 83.073 2.14683 4.5
    endloop
  endfacet
  facet normal 0.587784 0.809018 0
    outer loop
      vertex 81.573 3.23664 4.5
      vertex 83.073 2.14683 -4.5
      vertex 81.573 3.23664 -4.5
    endloop
  endfacet
  facet normal -0.587784 -0.809018 0
    outer loop
      vertex 84.927 7.85317 -4.5
      vertex 86.427 6.76336 4.5
      vertex 84.927 7.85317 4.5
    endloop
  endfacet
  facet normal -0.587784 -0.809018 -0
    outer loop
      vertex 86.427 6.76336 4.5
      vertex 84.927 7.85317 -4.5
      vertex 86.427 6.76336 -4.5
    endloop
  endfacet
  facet normal -0.951049 -0.309041 0
    outer loop
      vertex 87 5 -4.5
      vertex 86.427 6.76336 4.5
      vertex 86.427 6.76336 -4.5
    endloop
  endfacet
  facet normal -0.951049 -0.309041 0
    outer loop
      vertex 86.427 6.76336 4.5
      vertex 87 5 -4.5
      vertex 87 5 4.5
    endloop
  endfacet
  facet normal 0 -1 0
    outer loop
      vertex 83.073 7.85317 -4.5
      vertex 84.927 7.85317 4.5
      vertex 83.073 7.85317 4.5
    endloop
  endfacet
  facet normal 0 -1 -0
    outer loop
      vertex 84.927 7.85317 4.5
      vertex 83.073 7.85317 -4.5
      vertex 84.927 7.85317 -4.5
    endloop
  endfacet
  facet normal -0.587784 0.809018 0
    outer loop
      vertex 86.427 3.23664 -4.5
      vertex 84.927 2.14683 4.5
      vertex 86.427 3.23664 4.5
    endloop
  endfacet
  facet normal -0.587784 0.809018 0
    outer loop
      vertex 84.927 2.14683 4.5
      vertex 86.427 3.23664 -4.5
      vertex 84.927 2.14683 -4.5
    endloop
  endfacet
  facet normal 0 1 -0
    outer loop
      vertex 84.927 2.14683 -4.5
      vertex 83.073 2.14683 4.5
      vertex 84.927 2.14683 4.5
    endloop
  endfacet
  facet normal 0 1 0
    outer loop
      vertex 83.073 2.14683 4.5
      vertex 84.927 2.14683 -4.5
      vertex 83.073 2.14683 -4.5
    endloop
  endfacet
  facet normal 0.587784 -0.809018 0
    outer loop
      vertex 81.573 6.76336 -4.5
      vertex 83.073 7.85317 4.5
      vertex 81.573 6.76336 4.5
    endloop
  endfacet
  facet normal 0.587784 -0.809018 0
    outer loop
      vertex 83.073 7.85317 4.5
      vertex 81.573 6.76336 -4.5
      vertex 83.073 7.85317 -4.5
    endloop
  endfacet
  facet normal -0.951049 0.309041 0
    outer loop
      vertex 86.427 3.23664 -4.5
      vertex 87 5 4.5
      vertex 87 5 -4.5
    endloop
  endfacet
  facet normal -0.951049 0.309041 0
    outer loop
      vertex 87 5 4.5
      vertex 86.427 3.23664 -4.5
      vertex 86.427 3.23664 4.5
    endloop
  endfacet
  facet normal 0.951049 0.309041 0
    outer loop
      vertex 81.573 3.23664 4.5
      vertex 81 5 -4.5
      vertex 81 5 4.5
    endloop
  endfacet
  facet normal 0.951049 0.309041 0
    outer loop
      vertex 81 5 -4.5
      vertex 81.573 3.23664 4.5
      vertex 81.573 3.23664 -4.5
    endloop
  endfacet
  facet normal 0.951049 -0.309041 0
    outer loop
      vertex 71 -5 4.5
      vertex 71.573 -3.23664 -4.5
      vertex 71.573 -3.23664 4.5
    endloop
  endfacet
  facet normal 0.951049 -0.309041 0
    outer loop
      vertex 71.573 -3.23664 -4.5
      vertex 71 -5 4.5
      vertex 71 -5 -4.5
    endloop
  endfacet
  facet normal 0.587784 0.809018 -0
    outer loop
      vertex 73.073 -7.85317 -4.5
      vertex 71.573 -6.76336 4.5
      vertex 73.073 -7.85317 4.5
    endloop
  endfacet
  facet normal 0.587784 0.809018 0
    outer loop
      vertex 71.573 -6.76336 4.5
      vertex 73.073 -7.85317 -4.5
      vertex 71.573 -6.76336 -4.5
    endloop
  endfacet
  facet normal -0.587784 -0.809018 0
    outer loop
      vertex 74.927 -2.14683 -4.5
      vertex 76.427 -3.23664 4.5
      vertex 74.927 -2.14683 4.5
    endloop
  endfacet
  facet normal -0.587784 -0.809018 -0
    outer loop
      vertex 76.427 -3.23664 4.5
      vertex 74.927 -2.14683 -4.5
      vertex 76.427 -3.23664 -4.5
    endloop
  endfacet
  facet normal -0.951049 -0.309041 0
    outer loop
      vertex 77 -5 -4.5
      vertex 76.427 -3.23664 4.5
      vertex 76.427 -3.23664 -4.5
    endloop
  endfacet
  facet normal -0.951049 -0.309041 0
    outer loop
      vertex 76.427 -3.23664 4.5
      vertex 77 -5 -4.5
      vertex 77 -5 4.5
    endloop
  endfacet
  facet normal 0 -1 0
    outer loop
      vertex 73.073 -2.14683 -4.5
      vertex 74.927 -2.14683 4.5
      vertex 73.073 -2.14683 4.5
    endloop
  endfacet
  facet normal 0 -1 -0
    outer loop
      vertex 74.927 -2.14683 4.5
      vertex 73.073 -2.14683 -4.5
      vertex 74.927 -2.14683 -4.5
    endloop
  endfacet
  facet normal -0.587784 0.809018 0
    outer loop
      vertex 76.427 -6.76336 -4.5
      vertex 74.927 -7.85317 4.5
      vertex 76.427 -6.76336 4.5
    endloop
  endfacet
  facet normal -0.587784 0.809018 0
    outer loop
      vertex 74.927 -7.85317 4.5
      vertex 76.427 -6.76336 -4.5
      vertex 74.927 -7.85317 -4.5
    endloop
  endfacet
  facet normal 0 1 -0
    outer loop
      vertex 74.927 -7.85317 -4.5
      vertex 73.073 -7.85317 4.5
      vertex 74.927 -7.85317 4.5
    endloop
  endfacet
  facet normal 0 1 0
    outer loop
      vertex 73.073 -7.85317 4.5
      vertex 74.927 -7.85317 -4.5
      vertex 73.073 -7.85317 -4.5
    endloop
  endfacet
  facet normal 0.587784 -0.809018 0
    outer loop
      vertex 71.573 -3.23664 -4.5
      vertex 73.073 -2.14683 4.5
      vertex 71.573 -3.23664 4.5
    endloop
  endfacet
  facet normal 0.587784 -0.809018 0
    outer loop
      vertex 73.073 -2.14683 4.5
      vertex 71.573 -3.23664 -4.5
      vertex 73.073 -2.14683 -4.5
    endloop
  endfacet
  facet normal -0.951049 0.309041 0
    outer loop
      vertex 76.427 -6.76336 -4.5
      vertex 77 -5 4.5
      vertex 77 -5 -4.5
    endloop
  endfacet
  facet normal -0.951049 0.309041 0
    outer loop
      vertex 77 -5 4.5
      vertex 76.427 -6.76336 -4.5
      vertex 76.427 -6.76336 4.5
    endloop
  endfacet
  facet normal 0.951049 0.309041 0
    outer loop
      vertex 71.573 -6.76336 4.5
      vertex 71 -5 -4.5
      vertex 71 -5 4.5
    endloop
  endfacet
  facet normal 0.951049 0.309041 0
    outer loop
      vertex 71 -5 -4.5
      vertex 71.573 -6.76336 4.5
      vertex 71.573 -6.76336 -4.5
    endloop
  endfacet
  facet normal 0.951049 0.309041 0
    outer loop
      vertex -86.427 -6.76336 4.5
      vertex -87 -5 -4.5
      vertex -87 -5 4.5
    endloop
  endfacet
  facet normal 0.951049 0.309041 0
    outer loop
      vertex -87 -5 -4.5
      vertex -86.427 -6.76336 4.5
      vertex -86.427 -6.76336 -4.5
    endloop
  endfacet
  facet normal -0.587784 -0.809018 0
    outer loop
      vertex -83.073 -2.14683 -4.5
      vertex -81.573 -3.23664 4.5
      vertex -83.073 -2.14683 4.5
    endloop
  endfacet
  facet normal -0.587784 -0.809018 -0
    outer loop
      vertex -81.573 -3.23664 4.5
      vertex -83.073 -2.14683 -4.5
      vertex -81.573 -3.23664 -4.5
    endloop
  endfacet
  facet normal -0.951049 -0.309041 0
    outer loop
      vertex -81 -5 -4.5
      vertex -81.573 -3.23664 4.5
      vertex -81.573 -3.23664 -4.5
    endloop
  endfacet
  facet normal -0.951049 -0.309041 0
    outer loop
      vertex -81.573 -3.23664 4.5
      vertex -81 -5 -4.5
      vertex -81 -5 4.5
    endloop
  endfacet
  facet normal 0 -1 0
    outer loop
      vertex -84.927 -2.14683 -4.5
      vertex -83.073 -2.14683 4.5
      vertex -84.927 -2.14683 4.5
    endloop
  endfacet
  facet normal 0 -1 -0
    outer loop
      vertex -83.073 -2.14683 4.5
      vertex -84.927 -2.14683 -4.5
      vertex -83.073 -2.14683 -4.5
    endloop
  endfacet
  facet normal 0.587784 -0.809018 0
    outer loop
      vertex -86.427 -3.23664 -4.5
      vertex -84.927 -2.14683 4.5
      vertex -86.427 -3.23664 4.5
    endloop
  endfacet
  facet normal 0.587784 -0.809018 0
    outer loop
      vertex -84.927 -2.14683 4.5
      vertex -86.427 -3.23664 -4.5
      vertex -84.927 -2.14683 -4.5
    endloop
  endfacet
  facet normal -0.951049 0.309041 0
    outer loop
      vertex -81.573 -6.76336 -4.5
      vertex -81 -5 4.5
      vertex -81 -5 -4.5
    endloop
  endfacet
  facet normal -0.951049 0.309041 0
    outer loop
      vertex -81 -5 4.5
      vertex -81.573 -6.76336 -4.5
      vertex -81.573 -6.76336 4.5
    endloop
  endfacet
  facet normal 0.587784 0.809018 -0
    outer loop
      vertex -84.927 -7.85317 -4.5
      vertex -86.427 -6.76336 4.5
      vertex -84.927 -7.85317 4.5
    endloop
  endfacet
  facet normal 0.587784 0.809018 0
    outer loop
      vertex -86.427 -6.76336 4.5
      vertex -84.927 -7.85317 -4.5
      vertex -86.427 -6.76336 -4.5
    endloop
  endfacet
  facet normal 0 1 -0
    outer loop
      vertex -83.073 -7.85317 -4.5
      vertex -84.927 -7.85317 4.5
      vertex -83.073 -7.85317 4.5
    endloop
  endfacet
  facet normal 0 1 0
    outer loop
      vertex -84.927 -7.85317 4.5
      vertex -83.073 -7.85317 -4.5
      vertex -84.927 -7.85317 -4.5
    endloop
  endfacet
  facet normal -0.587784 0.809018 0
    outer loop
      vertex -81.573 -6.76336 -4.5
      vertex -83.073 -7.85317 4.5
      vertex -81.573 -6.76336 4.5
    endloop
  endfacet
  facet normal -0.587784 0.809018 0
    outer loop
      vertex -83.073 -7.85317 4.5
      vertex -81.573 -6.76336 -4.5
      vertex -83.073 -7.85317 -4.5
    endloop
  endfacet
  facet normal 0.951049 -0.309041 0
    outer loop
      vertex -87 -5 4.5
      vertex -86.427 -3.23664 -4.5
      vertex -86.427 -3.23664 4.5
    endloop
  endfacet
  facet normal 0.951049 -0.309041 0
    outer loop
      vertex -86.427 -3.23664 -4.5
      vertex -87 -5 4.5
      vertex -87 -5 -4.5
    endloop
  endfacet
  facet normal 0.951049 0.309041 0
    outer loop
      vertex -76.427 3.23664 4.5
      vertex -77 5 -4.5
      vertex -77 5 4.5
    endloop
  endfacet
  facet normal 0.951049 0.309041 0
    outer loop
      vertex -77 5 -4.5
      vertex -76.427 3.23664 4.5
      vertex -76.427 3.23664 -4.5
    endloop
  endfacet
  facet normal -0.587784 -0.809018 0
    outer loop
      vertex -73.073 7.85317 -4.5
      vertex -71.573 6.76336 4.5
      vertex -73.073 7.85317 4.5
    endloop
  endfacet
  facet normal -0.587784 -0.809018 -0
    outer loop
      vertex -71.573 6.76336 4.5
      vertex -73.073 7.85317 -4.5
      vertex -71.573 6.76336 -4.5
    endloop
  endfacet
  facet normal -0.951049 -0.309041 0
    outer loop
      vertex -71 5 -4.5
      vertex -71.573 6.76336 4.5
      vertex -71.573 6.76336 -4.5
    endloop
  endfacet
  facet normal -0.951049 -0.309041 0
    outer loop
      vertex -71.573 6.76336 4.5
      vertex -71 5 -4.5
      vertex -71 5 4.5
    endloop
  endfacet
  facet normal 0 -1 0
    outer loop
      vertex -74.927 7.85317 -4.5
      vertex -73.073 7.85317 4.5
      vertex -74.927 7.85317 4.5
    endloop
  endfacet
  facet normal 0 -1 -0
    outer loop
      vertex -73.073 7.85317 4.5
      vertex -74.927 7.85317 -4.5
      vertex -73.073 7.85317 -4.5
    endloop
  endfacet
  facet normal -0.951049 0.309041 0
    outer loop
      vertex -71.573 3.23664 -4.5
      vertex -71 5 4.5
      vertex -71 5 -4.5
    endloop
  endfacet
  facet normal -0.951049 0.309041 0
    outer loop
      vertex -71 5 4.5
      vertex -71.573 3.23664 -4.5
      vertex -71.573 3.23664 4.5
    endloop
  endfacet
  facet normal 0.587784 -0.809018 0
    outer loop
      vertex -76.427 6.76336 -4.5
      vertex -74.927 7.85317 4.5
      vertex -76.427 6.76336 4.5
    endloop
  endfacet
  facet normal 0.587784 -0.809018 0
    outer loop
      vertex -74.927 7.85317 4.5
      vertex -76.427 6.76336 -4.5
      vertex -74.927 7.85317 -4.5
    endloop
  endfacet
  facet normal 0.587784 0.809018 -0
    outer loop
      vertex -74.927 2.14683 -4.5
      vertex -76.427 3.23664 4.5
      vertex -74.927 2.14683 4.5
    endloop
  endfacet
  facet normal 0.587784 0.809018 0
    outer loop
      vertex -76.427 3.23664 4.5
      vertex -74.927 2.14683 -4.5
      vertex -76.427 3.23664 -4.5
    endloop
  endfacet
  facet normal 0 1 -0
    outer loop
      vertex -73.073 2.14683 -4.5
      vertex -74.927 2.14683 4.5
      vertex -73.073 2.14683 4.5
    endloop
  endfacet
  facet normal 0 1 0
    outer loop
      vertex -74.927 2.14683 4.5
      vertex -73.073 2.14683 -4.5
      vertex -74.927 2.14683 -4.5
    endloop
  endfacet
  facet normal -0.587784 0.809018 0
    outer loop
      vertex -71.573 3.23664 -4.5
      vertex -73.073 2.14683 4.5
      vertex -71.573 3.23664 4.5
    endloop
  endfacet
  facet normal -0.587784 0.809018 0
    outer loop
      vertex -73.073 2.14683 4.5
      vertex -71.573 3.23664 -4.5
      vertex -73.073 2.14683 -4.5
    endloop
  endfacet
  facet normal 0.951049 -0.309041 0
    outer loop
      vertex -77 5 4.5
      vertex -76.427 6.76336 -4.5
      vertex -76.427 6.76336 4.5
    endloop
  endfacet
  facet normal 0.951049 -0.309041 0
    outer loop
      vertex -76.427 6.76336 -4.5
      vertex -77 5 4.5
      vertex -77 5 -4.5
    endloop
  endfacet
endsolid OpenSCAD_Model
