solid OpenSCAD_Model
  facet normal 0 -1 0
    outer loop
      vertex -23.9745 -41.525 -3.75
      vertex 23.9745 -41.525 3.75
      vertex -23.9745 -41.525 3.75
    endloop
  endfacet
  facet normal 0 -1 -0
    outer loop
      vertex 23.9745 -41.525 3.75
      vertex -23.9745 -41.525 -3.75
      vertex 23.9745 -41.525 -3.75
    endloop
  endfacet
  facet normal 0.866026 -0.499999 0
    outer loop
      vertex 23.9745 -41.525 3.75
      vertex 47.9489 0 -3.75
      vertex 47.9489 0 3.75
    endloop
  endfacet
  facet normal 0.866026 -0.499999 0
    outer loop
      vertex 47.9489 0 -3.75
      vertex 23.9745 -41.525 3.75
      vertex 23.9745 -41.525 -3.75
    endloop
  endfacet
  facet normal 0 1 -0
    outer loop
      vertex 23.9745 41.525 -3.75
      vertex -23.9745 41.525 3.75
      vertex 23.9745 41.525 3.75
    endloop
  endfacet
  facet normal 0 1 0
    outer loop
      vertex -23.9745 41.525 3.75
      vertex 23.9745 41.525 -3.75
      vertex -23.9745 41.525 -3.75
    endloop
  endfacet
  facet normal 0.866026 0.499999 0
    outer loop
      vertex 47.9489 0 3.75
      vertex 23.9745 41.525 -3.75
      vertex 23.9745 41.525 3.75
    endloop
  endfacet
  facet normal 0.866026 0.499999 0
    outer loop
      vertex 23.9745 41.525 -3.75
      vertex 47.9489 0 3.75
      vertex 47.9489 0 -3.75
    endloop
  endfacet
  facet normal -0.866026 0.499999 0
    outer loop
      vertex -47.9489 0 -3.75
      vertex -23.9745 41.525 3.75
      vertex -23.9745 41.525 -3.75
    endloop
  endfacet
  facet normal -0.866026 0.499999 0
    outer loop
      vertex -23.9745 41.525 3.75
      vertex -47.9489 0 -3.75
      vertex -47.9489 0 3.75
    endloop
  endfacet
  facet normal -0.866026 -0.499999 0
    outer loop
      vertex -23.9745 -41.525 -3.75
      vertex -47.9489 0 3.75
      vertex -47.9489 0 -3.75
    endloop
  endfacet
  facet normal -0.866026 -0.499999 0
    outer loop
      vertex -47.9489 0 3.75
      vertex -23.9745 -41.525 -3.75
      vertex -23.9745 -41.525 3.75
    endloop
  endfacet
  facet normal 0 0 1
    outer loop
      vertex 47.9489 0 3.75
      vertex 32.889 3.43456 3.75
      vertex 34.872 0 3.75
    endloop
  endfacet
  facet normal 0 0 1
    outer loop
      vertex 47.9489 0 3.75
      vertex 32.5234 6.91306 3.75
      vertex 32.889 3.43456 3.75
    endloop
  endfacet
  facet normal 0 0 1
    outer loop
      vertex 47.9489 0 3.75
      vertex 30.3754 13.524 3.75
      vertex 32.5234 6.91306 3.75
    endloop
  endfacet
  facet normal 0 0 1
    outer loop
      vertex 47.9489 0 3.75
      vertex 26.8998 19.5439 3.75
      vertex 30.3754 13.524 3.75
    endloop
  endfacet
  facet normal 0 0 1
    outer loop
      vertex 23.9745 41.525 3.75
      vertex 26.8998 19.5439 3.75
      vertex 47.9489 0 3.75
    endloop
  endfacet
  facet normal 0 0 1
    outer loop
      vertex 23.9745 41.525 3.75
      vertex 22.2486 24.7096 3.75
      vertex 26.8998 19.5439 3.75
    endloop
  endfacet
  facet normal 0 0 1
    outer loop
      vertex 23.9745 41.525 3.75
      vertex 19.4189 26.7654 3.75
      vertex 22.2486 24.7096 3.75
    endloop
  endfacet
  facet normal 0 0 1
    outer loop
      vertex 23.9745 41.525 3.75
      vertex 17.436 30.2 3.75
      vertex 19.4189 26.7654 3.75
    endloop
  endfacet
  facet normal 0 0 1
    outer loop
      vertex 23.9745 41.525 3.75
      vertex 13.4701 30.2 3.75
      vertex 17.436 30.2 3.75
    endloop
  endfacet
  facet normal 0 0 1
    outer loop
      vertex 23.9745 41.525 3.75
      vertex 10.2748 31.6226 3.75
      vertex 13.4701 30.2 3.75
    endloop
  endfacet
  facet normal 0 0 1
    outer loop
      vertex 23.9745 41.525 3.75
      vertex 3.47557 33.0679 3.75
      vertex 10.2748 31.6226 3.75
    endloop
  endfacet
  facet normal 0 0 1
    outer loop
      vertex 23.9745 41.525 3.75
      vertex -3.47557 33.0679 3.75
      vertex 3.47557 33.0679 3.75
    endloop
  endfacet
  facet normal -0 0 1
    outer loop
      vertex -23.9745 41.525 3.75
      vertex -3.47557 33.0679 3.75
      vertex 23.9745 41.525 3.75
    endloop
  endfacet
  facet normal 0 0 1
    outer loop
      vertex -10.2748 31.6226 3.75
      vertex -17.436 30.2 3.75
      vertex -13.4701 30.2 3.75
    endloop
  endfacet
  facet normal 0 0 1
    outer loop
      vertex -3.47557 33.0679 3.75
      vertex -23.9745 41.525 3.75
      vertex -10.2748 31.6226 3.75
    endloop
  endfacet
  facet normal 0 0 1
    outer loop
      vertex -17.436 30.2 3.75
      vertex -22.2486 24.7096 3.75
      vertex -19.4189 26.7654 3.75
    endloop
  endfacet
  facet normal 0 0 1
    outer loop
      vertex -10.2748 31.6226 3.75
      vertex -23.9745 41.525 3.75
      vertex -17.436 30.2 3.75
    endloop
  endfacet
  facet normal 0 0 1
    outer loop
      vertex -23.9745 41.525 3.75
      vertex -22.2486 24.7096 3.75
      vertex -17.436 30.2 3.75
    endloop
  endfacet
  facet normal 0 0 1
    outer loop
      vertex -23.9745 41.525 3.75
      vertex -26.8998 19.5439 3.75
      vertex -22.2486 24.7096 3.75
    endloop
  endfacet
  facet normal 0 0 1
    outer loop
      vertex -23.9745 41.525 3.75
      vertex -30.3754 13.524 3.75
      vertex -26.8998 19.5439 3.75
    endloop
  endfacet
  facet normal 0 0 1
    outer loop
      vertex -47.9489 0 3.75
      vertex -30.3754 13.524 3.75
      vertex -23.9745 41.525 3.75
    endloop
  endfacet
  facet normal 0 0 1
    outer loop
      vertex -32.5234 6.91306 3.75
      vertex -34.872 0 3.75
      vertex -32.889 3.43456 3.75
    endloop
  endfacet
  facet normal 0 0 1
    outer loop
      vertex -30.3754 13.524 3.75
      vertex -47.9489 0 3.75
      vertex -32.5234 6.91306 3.75
    endloop
  endfacet
  facet normal 0 0 1
    outer loop
      vertex -32.5234 6.91306 3.75
      vertex -47.9489 0 3.75
      vertex -34.872 0 3.75
    endloop
  endfacet
  facet normal 0 0 1
    outer loop
      vertex 32.889 -3.43456 3.75
      vertex 47.9489 0 3.75
      vertex 34.872 0 3.75
    endloop
  endfacet
  facet normal 0 0 1
    outer loop
      vertex 32.5234 -6.91306 3.75
      vertex 47.9489 0 3.75
      vertex 32.889 -3.43456 3.75
    endloop
  endfacet
  facet normal 0 0 1
    outer loop
      vertex 30.3754 -13.524 3.75
      vertex 47.9489 0 3.75
      vertex 32.5234 -6.91306 3.75
    endloop
  endfacet
  facet normal 0 0 1
    outer loop
      vertex 26.8998 -19.5439 3.75
      vertex 47.9489 0 3.75
      vertex 30.3754 -13.524 3.75
    endloop
  endfacet
  facet normal -0 0 1
    outer loop
      vertex 26.8998 -19.5439 3.75
      vertex 23.9745 -41.525 3.75
      vertex 47.9489 0 3.75
    endloop
  endfacet
  facet normal -0 0 1
    outer loop
      vertex 22.2486 -24.7096 3.75
      vertex 23.9745 -41.525 3.75
      vertex 26.8998 -19.5439 3.75
    endloop
  endfacet
  facet normal -0 0 1
    outer loop
      vertex 19.4189 -26.7654 3.75
      vertex 23.9745 -41.525 3.75
      vertex 22.2486 -24.7096 3.75
    endloop
  endfacet
  facet normal -0 0 1
    outer loop
      vertex 17.436 -30.2 3.75
      vertex 23.9745 -41.525 3.75
      vertex 19.4189 -26.7654 3.75
    endloop
  endfacet
  facet normal -0 0 1
    outer loop
      vertex 13.4701 -30.2 3.75
      vertex 23.9745 -41.525 3.75
      vertex 17.436 -30.2 3.75
    endloop
  endfacet
  facet normal -0 0 1
    outer loop
      vertex 10.2748 -31.6226 3.75
      vertex 23.9745 -41.525 3.75
      vertex 13.4701 -30.2 3.75
    endloop
  endfacet
  facet normal -0 0 1
    outer loop
      vertex 3.47557 -33.0679 3.75
      vertex 23.9745 -41.525 3.75
      vertex 10.2748 -31.6226 3.75
    endloop
  endfacet
  facet normal -0 0 1
    outer loop
      vertex -3.47557 -33.0679 3.75
      vertex 23.9745 -41.525 3.75
      vertex 3.47557 -33.0679 3.75
    endloop
  endfacet
  facet normal 0 0 1
    outer loop
      vertex -23.9745 -41.525 3.75
      vertex -3.47557 -33.0679 3.75
      vertex -10.2748 -31.6226 3.75
    endloop
  endfacet
  facet normal -0 0 1
    outer loop
      vertex -17.436 -30.2 3.75
      vertex -10.2748 -31.6226 3.75
      vertex -13.4701 -30.2 3.75
    endloop
  endfacet
  facet normal 0 0 1
    outer loop
      vertex -23.9745 -41.525 3.75
      vertex -10.2748 -31.6226 3.75
      vertex -17.436 -30.2 3.75
    endloop
  endfacet
  facet normal 0 0 1
    outer loop
      vertex -22.2486 -24.7096 3.75
      vertex -17.436 -30.2 3.75
      vertex -19.4189 -26.7654 3.75
    endloop
  endfacet
  facet normal 0 0 1
    outer loop
      vertex -3.47557 -33.0679 3.75
      vertex -23.9745 -41.525 3.75
      vertex 23.9745 -41.525 3.75
    endloop
  endfacet
  facet normal 0 0 1
    outer loop
      vertex -22.2486 -24.7096 3.75
      vertex -23.9745 -41.525 3.75
      vertex -17.436 -30.2 3.75
    endloop
  endfacet
  facet normal 0 0 1
    outer loop
      vertex -26.8998 -19.5439 3.75
      vertex -23.9745 -41.525 3.75
      vertex -22.2486 -24.7096 3.75
    endloop
  endfacet
  facet normal 0 0 1
    outer loop
      vertex -30.3754 -13.524 3.75
      vertex -23.9745 -41.525 3.75
      vertex -26.8998 -19.5439 3.75
    endloop
  endfacet
  facet normal 0 0 1
    outer loop
      vertex -47.9489 0 3.75
      vertex -30.3754 -13.524 3.75
      vertex -32.5234 -6.91306 3.75
    endloop
  endfacet
  facet normal 0 0 1
    outer loop
      vertex -34.872 0 3.75
      vertex -32.5234 -6.91306 3.75
      vertex -32.889 -3.43456 3.75
    endloop
  endfacet
  facet normal -0 0 1
    outer loop
      vertex -47.9489 0 3.75
      vertex -32.5234 -6.91306 3.75
      vertex -34.872 0 3.75
    endloop
  endfacet
  facet normal 0 0 1
    outer loop
      vertex -30.3754 -13.524 3.75
      vertex -47.9489 0 3.75
      vertex -23.9745 -41.525 3.75
    endloop
  endfacet
  facet normal 0 0 -1
    outer loop
      vertex 23.9745 -41.525 -3.75
      vertex 34.872 0 -3.75
      vertex 47.9489 0 -3.75
    endloop
  endfacet
  facet normal 0 0 -1
    outer loop
      vertex 23.9745 -41.525 -3.75
      vertex 17.436 -30.2 -3.75
      vertex 34.872 0 -3.75
    endloop
  endfacet
  facet normal 0 0 -1
    outer loop
      vertex 23.9745 -41.525 -3.75
      vertex -17.436 -30.2 -3.75
      vertex 17.436 -30.2 -3.75
    endloop
  endfacet
  facet normal 0 0 -1
    outer loop
      vertex -23.9745 -41.525 -3.75
      vertex -17.436 -30.2 -3.75
      vertex 23.9745 -41.525 -3.75
    endloop
  endfacet
  facet normal 0 0 -1
    outer loop
      vertex -23.9745 -41.525 -3.75
      vertex -34.872 0 -3.75
      vertex -17.436 -30.2 -3.75
    endloop
  endfacet
  facet normal -0 -0 -1
    outer loop
      vertex -34.872 0 -3.75
      vertex -23.9745 -41.525 -3.75
      vertex -47.9489 0 -3.75
    endloop
  endfacet
  facet normal 0 0 -1
    outer loop
      vertex 34.872 0 -3.75
      vertex 23.9745 41.525 -3.75
      vertex 47.9489 0 -3.75
    endloop
  endfacet
  facet normal 0 0 -1
    outer loop
      vertex 17.436 30.2 -3.75
      vertex 23.9745 41.525 -3.75
      vertex 34.872 0 -3.75
    endloop
  endfacet
  facet normal 0 0 -1
    outer loop
      vertex -17.436 30.2 -3.75
      vertex 23.9745 41.525 -3.75
      vertex 17.436 30.2 -3.75
    endloop
  endfacet
  facet normal 0 0 -1
    outer loop
      vertex -17.436 30.2 -3.75
      vertex -23.9745 41.525 -3.75
      vertex 23.9745 41.525 -3.75
    endloop
  endfacet
  facet normal 0 0 -1
    outer loop
      vertex -34.872 0 -3.75
      vertex -23.9745 41.525 -3.75
      vertex -17.436 30.2 -3.75
    endloop
  endfacet
  facet normal 0 0 -1
    outer loop
      vertex -23.9745 41.525 -3.75
      vertex -34.872 0 -3.75
      vertex -47.9489 0 -3.75
    endloop
  endfacet
  facet normal 0 1 0
    outer loop
      vertex 17.436 -30.2 3.75
      vertex 13.4701 -30.2 0
      vertex 13.4701 -30.2 3.75
    endloop
  endfacet
  facet normal 0 1 0
    outer loop
      vertex 13.4701 -30.2 0
      vertex 17.436 -30.2 -3.75
      vertex -13.4701 -30.2 0
    endloop
  endfacet
  facet normal 0 1 -0
    outer loop
      vertex 17.436 -30.2 -3.75
      vertex 13.4701 -30.2 0
      vertex 17.436 -30.2 3.75
    endloop
  endfacet
  facet normal 0 1 -0
    outer loop
      vertex -13.4701 -30.2 0
      vertex -17.436 -30.2 3.75
      vertex -13.4701 -30.2 3.75
    endloop
  endfacet
  facet normal 0 1 0
    outer loop
      vertex -13.4701 -30.2 0
      vertex -17.436 -30.2 -3.75
      vertex -17.436 -30.2 3.75
    endloop
  endfacet
  facet normal 0 1 0
    outer loop
      vertex -17.436 -30.2 -3.75
      vertex -13.4701 -30.2 0
      vertex 17.436 -30.2 -3.75
    endloop
  endfacet
  facet normal -0.866019 0.500011 0
    outer loop
      vertex 34.872 0 -3.75
      vertex 32.889 -3.43456 0
      vertex 34.872 0 3.75
    endloop
  endfacet
  facet normal -0.866025 0.500001 -1.17699e-05
    outer loop
      vertex 34.872 0 -3.75
      vertex 19.4189 -26.7654 0
      vertex 32.889 -3.43456 0
    endloop
  endfacet
  facet normal -0.866025 0.5 -1.61016e-05
    outer loop
      vertex 17.436 -30.2 -3.75
      vertex 19.4189 -26.7654 0
      vertex 34.872 0 -3.75
    endloop
  endfacet
  facet normal -0.866033 0.499987 0
    outer loop
      vertex 17.436 -30.2 3.75
      vertex 19.4189 -26.7654 0
      vertex 17.436 -30.2 -3.75
    endloop
  endfacet
  facet normal -0.866033 0.499987 0
    outer loop
      vertex 19.4189 -26.7654 0
      vertex 17.436 -30.2 3.75
      vertex 19.4189 -26.7654 3.75
    endloop
  endfacet
  facet normal -0.866019 0.500011 0
    outer loop
      vertex 34.872 0 3.75
      vertex 32.889 -3.43456 0
      vertex 32.889 -3.43456 3.75
    endloop
  endfacet
  facet normal 0 -1 0
    outer loop
      vertex -17.436 30.2 3.75
      vertex -13.4701 30.2 0
      vertex -13.4701 30.2 3.75
    endloop
  endfacet
  facet normal 0 -1 -0
    outer loop
      vertex -13.4701 30.2 0
      vertex -17.436 30.2 -3.75
      vertex 13.4701 30.2 0
    endloop
  endfacet
  facet normal 0 -1 0
    outer loop
      vertex -17.436 30.2 -3.75
      vertex -13.4701 30.2 0
      vertex -17.436 30.2 3.75
    endloop
  endfacet
  facet normal 0 -1 0
    outer loop
      vertex 13.4701 30.2 0
      vertex 17.436 30.2 3.75
      vertex 13.4701 30.2 3.75
    endloop
  endfacet
  facet normal 0 -1 0
    outer loop
      vertex 13.4701 30.2 0
      vertex 17.436 30.2 -3.75
      vertex 17.436 30.2 3.75
    endloop
  endfacet
  facet normal 0 -1 0
    outer loop
      vertex 17.436 30.2 -3.75
      vertex 13.4701 30.2 0
      vertex -17.436 30.2 -3.75
    endloop
  endfacet
  facet normal -0.866033 -0.499987 0
    outer loop
      vertex 17.436 30.2 -3.75
      vertex 19.4189 26.7654 0
      vertex 17.436 30.2 3.75
    endloop
  endfacet
  facet normal -0.866025 -0.500001 -1.66574e-05
    outer loop
      vertex 17.436 30.2 -3.75
      vertex 32.889 3.43456 0
      vertex 19.4189 26.7654 0
    endloop
  endfacet
  facet normal -0.866025 -0.5 -1.23258e-05
    outer loop
      vertex 34.872 0 -3.75
      vertex 32.889 3.43456 0
      vertex 17.436 30.2 -3.75
    endloop
  endfacet
  facet normal -0.866019 -0.500011 -0
    outer loop
      vertex 34.872 0 3.75
      vertex 32.889 3.43456 0
      vertex 34.872 0 -3.75
    endloop
  endfacet
  facet normal -0.866019 -0.500011 0
    outer loop
      vertex 32.889 3.43456 0
      vertex 34.872 0 3.75
      vertex 32.889 3.43456 3.75
    endloop
  endfacet
  facet normal -0.866033 -0.499987 0
    outer loop
      vertex 17.436 30.2 3.75
      vertex 19.4189 26.7654 0
      vertex 19.4189 26.7654 3.75
    endloop
  endfacet
  facet normal 0.866019 -0.500011 0
    outer loop
      vertex -32.889 3.43456 3.75
      vertex -34.872 0 3.75
      vertex -32.889 3.43456 0
    endloop
  endfacet
  facet normal 0.866033 -0.499987 0
    outer loop
      vertex -19.4189 26.7654 0
      vertex -17.436 30.2 3.75
      vertex -19.4189 26.7654 3.75
    endloop
  endfacet
  facet normal 0.866033 -0.499987 0
    outer loop
      vertex -17.436 30.2 3.75
      vertex -19.4189 26.7654 0
      vertex -17.436 30.2 -3.75
    endloop
  endfacet
  facet normal 0.866025 -0.500001 -1.66574e-05
    outer loop
      vertex -32.889 3.43456 0
      vertex -17.436 30.2 -3.75
      vertex -19.4189 26.7654 0
    endloop
  endfacet
  facet normal 0.866025 -0.5 -1.23258e-05
    outer loop
      vertex -32.889 3.43456 0
      vertex -34.872 0 -3.75
      vertex -17.436 30.2 -3.75
    endloop
  endfacet
  facet normal 0.866019 -0.500011 0
    outer loop
      vertex -34.872 0 -3.75
      vertex -32.889 3.43456 0
      vertex -34.872 0 3.75
    endloop
  endfacet
  facet normal 0.866033 0.499987 0
    outer loop
      vertex -19.4189 -26.7654 3.75
      vertex -17.436 -30.2 3.75
      vertex -19.4189 -26.7654 0
    endloop
  endfacet
  facet normal 0.866019 0.500011 -0
    outer loop
      vertex -32.889 -3.43456 0
      vertex -34.872 0 3.75
      vertex -32.889 -3.43456 3.75
    endloop
  endfacet
  facet normal 0.866019 0.500011 0
    outer loop
      vertex -34.872 0 3.75
      vertex -32.889 -3.43456 0
      vertex -34.872 0 -3.75
    endloop
  endfacet
  facet normal 0.866025 0.500001 -1.17699e-05
    outer loop
      vertex -19.4189 -26.7654 0
      vertex -34.872 0 -3.75
      vertex -32.889 -3.43456 0
    endloop
  endfacet
  facet normal 0.866025 0.5 -1.61016e-05
    outer loop
      vertex -19.4189 -26.7654 0
      vertex -17.436 -30.2 -3.75
      vertex -34.872 0 -3.75
    endloop
  endfacet
  facet normal 0.866033 0.499987 -0
    outer loop
      vertex -17.436 -30.2 -3.75
      vertex -19.4189 -26.7654 0
      vertex -17.436 -30.2 3.75
    endloop
  endfacet
  facet normal -0.951058 -0.309014 0
    outer loop
      vertex 32.5234 6.91306 0
      vertex 30.3754 13.524 3.75
      vertex 30.3754 13.524 0
    endloop
  endfacet
  facet normal -0.951058 -0.309014 0
    outer loop
      vertex 30.3754 13.524 3.75
      vertex 32.5234 6.91306 0
      vertex 32.5234 6.91306 3.75
    endloop
  endfacet
  facet normal -0.994522 -0.104527 0
    outer loop
      vertex 32.889 3.43456 0
      vertex 32.5234 6.91306 3.75
      vertex 32.5234 6.91306 0
    endloop
  endfacet
  facet normal -0.994522 -0.104527 0
    outer loop
      vertex 32.5234 6.91306 3.75
      vertex 32.889 3.43456 0
      vertex 32.889 3.43456 3.75
    endloop
  endfacet
  facet normal -0.994522 0.104527 0
    outer loop
      vertex 32.5234 -6.91306 0
      vertex 32.889 -3.43456 3.75
      vertex 32.889 -3.43456 0
    endloop
  endfacet
  facet normal -0.994522 0.104527 0
    outer loop
      vertex 32.889 -3.43456 3.75
      vertex 32.5234 -6.91306 0
      vertex 32.5234 -6.91306 3.75
    endloop
  endfacet
  facet normal 0.207923 0.978145 -0
    outer loop
      vertex -3.47557 -33.0679 0
      vertex -10.2748 -31.6226 3.75
      vertex -3.47557 -33.0679 3.75
    endloop
  endfacet
  facet normal 0.207923 0.978145 0
    outer loop
      vertex -10.2748 -31.6226 3.75
      vertex -3.47557 -33.0679 0
      vertex -10.2748 -31.6226 0
    endloop
  endfacet
  facet normal -0.951058 0.309014 0
    outer loop
      vertex 30.3754 -13.524 0
      vertex 32.5234 -6.91306 3.75
      vertex 32.5234 -6.91306 0
    endloop
  endfacet
  facet normal -0.951058 0.309014 0
    outer loop
      vertex 32.5234 -6.91306 3.75
      vertex 30.3754 -13.524 0
      vertex 30.3754 -13.524 3.75
    endloop
  endfacet
  facet normal 0.866025 0.500001 0
    outer loop
      vertex -26.8998 -19.5439 3.75
      vertex -30.3754 -13.524 0
      vertex -30.3754 -13.524 3.75
    endloop
  endfacet
  facet normal 0.866025 0.500001 0
    outer loop
      vertex -30.3754 -13.524 0
      vertex -26.8998 -19.5439 3.75
      vertex -26.8998 -19.5439 0
    endloop
  endfacet
  facet normal 0.587767 0.80903 -0
    outer loop
      vertex -19.4189 -26.7654 0
      vertex -22.2486 -24.7096 3.75
      vertex -19.4189 -26.7654 3.75
    endloop
  endfacet
  facet normal 0.587767 0.80903 0
    outer loop
      vertex -22.2486 -24.7096 3.75
      vertex -19.4189 -26.7654 0
      vertex -22.2486 -24.7096 0
    endloop
  endfacet
  facet normal -0.406727 -0.91355 0
    outer loop
      vertex 10.2748 31.6226 0
      vertex 13.4701 30.2 3.75
      vertex 10.2748 31.6226 3.75
    endloop
  endfacet
  facet normal -0.406727 -0.91355 -0
    outer loop
      vertex 13.4701 30.2 3.75
      vertex 10.2748 31.6226 0
      vertex 13.4701 30.2 0
    endloop
  endfacet
  facet normal -0.587767 0.80903 0
    outer loop
      vertex 22.2486 -24.7096 0
      vertex 19.4189 -26.7654 3.75
      vertex 22.2486 -24.7096 3.75
    endloop
  endfacet
  facet normal -0.587767 0.80903 0
    outer loop
      vertex 19.4189 -26.7654 3.75
      vertex 22.2486 -24.7096 0
      vertex 19.4189 -26.7654 0
    endloop
  endfacet
  facet normal 0.587767 -0.80903 0
    outer loop
      vertex -22.2486 24.7096 0
      vertex -19.4189 26.7654 3.75
      vertex -22.2486 24.7096 3.75
    endloop
  endfacet
  facet normal 0.587767 -0.80903 0
    outer loop
      vertex -19.4189 26.7654 3.75
      vertex -22.2486 24.7096 0
      vertex -19.4189 26.7654 0
    endloop
  endfacet
  facet normal 0.951058 0.309014 0
    outer loop
      vertex -30.3754 -13.524 3.75
      vertex -32.5234 -6.91306 0
      vertex -32.5234 -6.91306 3.75
    endloop
  endfacet
  facet normal 0.951058 0.309014 0
    outer loop
      vertex -32.5234 -6.91306 0
      vertex -30.3754 -13.524 3.75
      vertex -30.3754 -13.524 0
    endloop
  endfacet
  facet normal -0.866025 0.500001 0
    outer loop
      vertex 26.8998 -19.5439 0
      vertex 30.3754 -13.524 3.75
      vertex 30.3754 -13.524 0
    endloop
  endfacet
  facet normal -0.866025 0.500001 0
    outer loop
      vertex 30.3754 -13.524 3.75
      vertex 26.8998 -19.5439 0
      vertex 26.8998 -19.5439 3.75
    endloop
  endfacet
  facet normal 0 -1 0
    outer loop
      vertex -3.47557 33.0679 0
      vertex 3.47557 33.0679 3.75
      vertex -3.47557 33.0679 3.75
    endloop
  endfacet
  facet normal 0 -1 -0
    outer loop
      vertex 3.47557 33.0679 3.75
      vertex -3.47557 33.0679 0
      vertex 3.47557 33.0679 0
    endloop
  endfacet
  facet normal 0.951058 -0.309014 0
    outer loop
      vertex -32.5234 6.91306 3.75
      vertex -30.3754 13.524 0
      vertex -30.3754 13.524 3.75
    endloop
  endfacet
  facet normal 0.951058 -0.309014 0
    outer loop
      vertex -30.3754 13.524 0
      vertex -32.5234 6.91306 3.75
      vertex -32.5234 6.91306 0
    endloop
  endfacet
  facet normal 0 1 -0
    outer loop
      vertex 3.47557 -33.0679 0
      vertex -3.47557 -33.0679 3.75
      vertex 3.47557 -33.0679 3.75
    endloop
  endfacet
  facet normal 0 1 0
    outer loop
      vertex -3.47557 -33.0679 3.75
      vertex 3.47557 -33.0679 0
      vertex -3.47557 -33.0679 0
    endloop
  endfacet
  facet normal 0.866025 -0.500001 0
    outer loop
      vertex -30.3754 13.524 3.75
      vertex -26.8998 19.5439 0
      vertex -26.8998 19.5439 3.75
    endloop
  endfacet
  facet normal 0.866025 -0.500001 0
    outer loop
      vertex -26.8998 19.5439 0
      vertex -30.3754 13.524 3.75
      vertex -30.3754 13.524 0
    endloop
  endfacet
  facet normal 0.207923 -0.978145 0
    outer loop
      vertex -10.2748 31.6226 0
      vertex -3.47557 33.0679 3.75
      vertex -10.2748 31.6226 3.75
    endloop
  endfacet
  facet normal 0.207923 -0.978145 0
    outer loop
      vertex -3.47557 33.0679 3.75
      vertex -10.2748 31.6226 0
      vertex -3.47557 33.0679 0
    endloop
  endfacet
  facet normal -0.207923 0.978145 0
    outer loop
      vertex 10.2748 -31.6226 0
      vertex 3.47557 -33.0679 3.75
      vertex 10.2748 -31.6226 3.75
    endloop
  endfacet
  facet normal -0.207923 0.978145 0
    outer loop
      vertex 3.47557 -33.0679 3.75
      vertex 10.2748 -31.6226 0
      vertex 3.47557 -33.0679 0
    endloop
  endfacet
  facet normal -0.743146 0.669129 0
    outer loop
      vertex 22.2486 -24.7096 0
      vertex 26.8998 -19.5439 3.75
      vertex 26.8998 -19.5439 0
    endloop
  endfacet
  facet normal -0.743146 0.669129 0
    outer loop
      vertex 26.8998 -19.5439 3.75
      vertex 22.2486 -24.7096 0
      vertex 22.2486 -24.7096 3.75
    endloop
  endfacet
  facet normal 0.406727 -0.91355 0
    outer loop
      vertex -13.4701 30.2 0
      vertex -10.2748 31.6226 3.75
      vertex -13.4701 30.2 3.75
    endloop
  endfacet
  facet normal 0.406727 -0.91355 0
    outer loop
      vertex -10.2748 31.6226 3.75
      vertex -13.4701 30.2 0
      vertex -10.2748 31.6226 0
    endloop
  endfacet
  facet normal -0.406727 0.91355 0
    outer loop
      vertex 13.4701 -30.2 0
      vertex 10.2748 -31.6226 3.75
      vertex 13.4701 -30.2 3.75
    endloop
  endfacet
  facet normal -0.406727 0.91355 0
    outer loop
      vertex 10.2748 -31.6226 3.75
      vertex 13.4701 -30.2 0
      vertex 10.2748 -31.6226 0
    endloop
  endfacet
  facet normal 0.406727 0.91355 -0
    outer loop
      vertex -10.2748 -31.6226 0
      vertex -13.4701 -30.2 3.75
      vertex -10.2748 -31.6226 3.75
    endloop
  endfacet
  facet normal 0.406727 0.91355 0
    outer loop
      vertex -13.4701 -30.2 3.75
      vertex -10.2748 -31.6226 0
      vertex -13.4701 -30.2 0
    endloop
  endfacet
  facet normal -0.587767 -0.80903 0
    outer loop
      vertex 19.4189 26.7654 0
      vertex 22.2486 24.7096 3.75
      vertex 19.4189 26.7654 3.75
    endloop
  endfacet
  facet normal -0.587767 -0.80903 -0
    outer loop
      vertex 22.2486 24.7096 3.75
      vertex 19.4189 26.7654 0
      vertex 22.2486 24.7096 0
    endloop
  endfacet
  facet normal -0.743146 -0.669129 0
    outer loop
      vertex 26.8998 19.5439 0
      vertex 22.2486 24.7096 3.75
      vertex 22.2486 24.7096 0
    endloop
  endfacet
  facet normal -0.743146 -0.669129 0
    outer loop
      vertex 22.2486 24.7096 3.75
      vertex 26.8998 19.5439 0
      vertex 26.8998 19.5439 3.75
    endloop
  endfacet
  facet normal -0.207923 -0.978145 0
    outer loop
      vertex 3.47557 33.0679 0
      vertex 10.2748 31.6226 3.75
      vertex 3.47557 33.0679 3.75
    endloop
  endfacet
  facet normal -0.207923 -0.978145 -0
    outer loop
      vertex 10.2748 31.6226 3.75
      vertex 3.47557 33.0679 0
      vertex 10.2748 31.6226 0
    endloop
  endfacet
  facet normal 0.994522 -0.104527 0
    outer loop
      vertex -32.889 3.43456 3.75
      vertex -32.5234 6.91306 0
      vertex -32.5234 6.91306 3.75
    endloop
  endfacet
  facet normal 0.994522 -0.104527 0
    outer loop
      vertex -32.5234 6.91306 0
      vertex -32.889 3.43456 3.75
      vertex -32.889 3.43456 0
    endloop
  endfacet
  facet normal -0.866025 -0.500001 0
    outer loop
      vertex 30.3754 13.524 0
      vertex 26.8998 19.5439 3.75
      vertex 26.8998 19.5439 0
    endloop
  endfacet
  facet normal -0.866025 -0.500001 0
    outer loop
      vertex 26.8998 19.5439 3.75
      vertex 30.3754 13.524 0
      vertex 30.3754 13.524 3.75
    endloop
  endfacet
  facet normal 0.994522 0.104527 0
    outer loop
      vertex -32.5234 -6.91306 3.75
      vertex -32.889 -3.43456 0
      vertex -32.889 -3.43456 3.75
    endloop
  endfacet
  facet normal 0.994522 0.104527 0
    outer loop
      vertex -32.889 -3.43456 0
      vertex -32.5234 -6.91306 3.75
      vertex -32.5234 -6.91306 0
    endloop
  endfacet
  facet normal 0.743146 0.669129 0
    outer loop
      vertex -22.2486 -24.7096 3.75
      vertex -26.8998 -19.5439 0
      vertex -26.8998 -19.5439 3.75
    endloop
  endfacet
  facet normal 0.743146 0.669129 0
    outer loop
      vertex -26.8998 -19.5439 0
      vertex -22.2486 -24.7096 3.75
      vertex -22.2486 -24.7096 0
    endloop
  endfacet
  facet normal 0 0 1
    outer loop
      vertex 32.889 -3.43456 0
      vertex 30.3754 -13.524 0
      vertex 32.5234 -6.91306 0
    endloop
  endfacet
  facet normal 0 0 1
    outer loop
      vertex 32.889 -3.43456 0
      vertex 26.8998 -19.5439 0
      vertex 30.3754 -13.524 0
    endloop
  endfacet
  facet normal 0 0 1
    outer loop
      vertex 19.4189 -26.7654 0
      vertex 26.8998 -19.5439 0
      vertex 32.889 -3.43456 0
    endloop
  endfacet
  facet normal 0 0 1
    outer loop
      vertex 26.8998 -19.5439 0
      vertex 19.4189 -26.7654 0
      vertex 22.2486 -24.7096 0
    endloop
  endfacet
  facet normal 0 0 1
    outer loop
      vertex 13.4701 -30.2 0
      vertex 3.47557 -33.0679 0
      vertex 10.2748 -31.6226 0
    endloop
  endfacet
  facet normal 0 0 1
    outer loop
      vertex 13.4701 -30.2 0
      vertex -3.47557 -33.0679 0
      vertex 3.47557 -33.0679 0
    endloop
  endfacet
  facet normal -0 0 1
    outer loop
      vertex -13.4701 -30.2 0
      vertex -3.47557 -33.0679 0
      vertex 13.4701 -30.2 0
    endloop
  endfacet
  facet normal 0 0 1
    outer loop
      vertex -3.47557 -33.0679 0
      vertex -13.4701 -30.2 0
      vertex -10.2748 -31.6226 0
    endloop
  endfacet
  facet normal 0 0 1
    outer loop
      vertex 3.47557 33.0679 0
      vertex 13.4701 30.2 0
      vertex 10.2748 31.6226 0
    endloop
  endfacet
  facet normal -0 0 1
    outer loop
      vertex -3.47557 33.0679 0
      vertex 13.4701 30.2 0
      vertex 3.47557 33.0679 0
    endloop
  endfacet
  facet normal 0 0 1
    outer loop
      vertex -13.4701 30.2 0
      vertex -3.47557 33.0679 0
      vertex -10.2748 31.6226 0
    endloop
  endfacet
  facet normal 0 0 1
    outer loop
      vertex -3.47557 33.0679 0
      vertex -13.4701 30.2 0
      vertex 13.4701 30.2 0
    endloop
  endfacet
  facet normal 0 0 1
    outer loop
      vertex -19.4189 -26.7654 0
      vertex -26.8998 -19.5439 0
      vertex -22.2486 -24.7096 0
    endloop
  endfacet
  facet normal 0 0 1
    outer loop
      vertex -19.4189 -26.7654 0
      vertex -30.3754 -13.524 0
      vertex -26.8998 -19.5439 0
    endloop
  endfacet
  facet normal 0 0 1
    outer loop
      vertex -32.889 -3.43456 0
      vertex -30.3754 -13.524 0
      vertex -19.4189 -26.7654 0
    endloop
  endfacet
  facet normal 0 0 1
    outer loop
      vertex -30.3754 -13.524 0
      vertex -32.889 -3.43456 0
      vertex -32.5234 -6.91306 0
    endloop
  endfacet
  facet normal 0 0 1
    outer loop
      vertex 30.3754 13.524 0
      vertex 32.889 3.43456 0
      vertex 32.5234 6.91306 0
    endloop
  endfacet
  facet normal 0 0 1
    outer loop
      vertex 26.8998 19.5439 0
      vertex 32.889 3.43456 0
      vertex 30.3754 13.524 0
    endloop
  endfacet
  facet normal 0 0 1
    outer loop
      vertex 19.4189 26.7654 0
      vertex 26.8998 19.5439 0
      vertex 22.2486 24.7096 0
    endloop
  endfacet
  facet normal 0 0 1
    outer loop
      vertex 26.8998 19.5439 0
      vertex 19.4189 26.7654 0
      vertex 32.889 3.43456 0
    endloop
  endfacet
  facet normal 0 0 1
    outer loop
      vertex -26.8998 19.5439 0
      vertex -19.4189 26.7654 0
      vertex -22.2486 24.7096 0
    endloop
  endfacet
  facet normal 0 0 1
    outer loop
      vertex -30.3754 13.524 0
      vertex -19.4189 26.7654 0
      vertex -26.8998 19.5439 0
    endloop
  endfacet
  facet normal 0 0 1
    outer loop
      vertex -32.889 3.43456 0
      vertex -30.3754 13.524 0
      vertex -32.5234 6.91306 0
    endloop
  endfacet
  facet normal -0 0 1
    outer loop
      vertex -30.3754 13.524 0
      vertex -32.889 3.43456 0
      vertex -19.4189 26.7654 0
    endloop
  endfacet
  facet normal 0.743146 -0.669129 0
    outer loop
      vertex -26.8998 19.5439 3.75
      vertex -22.2486 24.7096 0
      vertex -22.2486 24.7096 3.75
    endloop
  endfacet
  facet normal 0.743146 -0.669129 0
    outer loop
      vertex -22.2486 24.7096 0
      vertex -26.8998 19.5439 3.75
      vertex -26.8998 19.5439 0
    endloop
  endfacet
endsolid OpenSCAD_Model
